<svg version="1.1" id="Layer_1" xmlns="http://www.w3.org/2000/svg" xmlns:xlink="http://www.w3.org/1999/xlink" x="0px" y="0px"
	 width="100%" viewBox="0 0 1024 1024" enable-background="new 0 0 1024 1024" xml:space="preserve">
<path fill="#000000" opacity="1.000000" stroke="none" 
	d="
M574.640869,904.473145 
	C550.252441,900.387329 526.301147,896.335876 502.342743,892.327271 
	C470.349121,886.974182 438.352783,881.637390 406.352509,876.324158 
	C359.913391,868.613464 313.465302,860.956726 267.030273,853.221558 
	C248.984924,850.215454 230.953171,847.123840 212.937851,843.942993 
	C203.693741,842.310852 201.105835,839.089844 201.076050,829.767639 
	C201.028122,814.768738 201.003876,799.769714 200.996780,784.770752 
	C200.972122,732.607605 200.958664,680.444458 200.943787,628.281311 
	C200.943268,626.448303 200.984879,624.615356 200.985611,622.782349 
	C200.986938,619.493896 202.617416,618.532227 205.794907,618.883545 
	C223.640442,620.856934 241.494034,622.762268 259.356567,624.575684 
	C280.207275,626.692627 301.069244,628.699219 321.928253,630.733521 
	C325.899475,631.120789 329.876617,631.463074 333.857635,631.725647 
	C335.306610,631.821167 336.907227,632.088379 337.963104,630.601318 
	C335.984131,625.291687 328.489990,620.854492 322.987427,621.123901 
	C313.804108,621.573669 304.766632,619.624512 295.653320,618.865845 
	C275.420532,617.181335 255.215973,615.156799 235.001312,613.255920 
	C222.406494,612.071594 209.813705,610.865540 197.221237,609.656433 
	C193.562927,609.305176 189.875641,608.978271 186.278534,609.837219 
	C182.818161,610.663574 181.178284,609.018799 180.550156,606.016846 
	C180.110703,603.916687 179.951828,601.732300 179.902008,599.580078 
	C179.365997,576.427002 180.133804,553.260986 179.038406,530.108276 
	C178.553055,519.849915 179.973358,517.614014 189.628525,514.188232 
	C216.930450,504.500977 244.341949,495.122650 271.709442,485.620148 
	C274.380981,484.692535 277.176392,484.007202 279.685089,482.751465 
	C283.556488,480.813599 285.809998,477.486755 285.406494,473.064819 
	C285.033234,468.974457 280.869507,465.681732 276.235992,465.253052 
	C272.187103,464.878418 268.331543,465.684998 264.436646,466.789856 
	C250.447083,470.758240 237.649719,469.405396 227.623398,457.575897 
	C221.515091,450.369110 218.732651,442.051178 220.100586,432.542725 
	C220.148026,432.213013 220.225281,431.887573 220.272476,431.557831 
	C222.785934,413.993988 215.419128,405.223816 197.671555,404.920959 
	C186.480957,404.729980 176.206314,402.524475 168.299362,393.712280 
	C159.633484,384.054321 157.904236,369.109344 164.349152,357.884979 
	C170.926117,346.430634 183.246750,340.949951 196.205948,343.591766 
	C199.773880,344.319061 202.673462,346.076477 205.337631,348.439941 
	C211.060822,353.517090 215.512848,354.049255 222.088760,350.062134 
	C225.781967,347.822815 229.260269,345.202393 232.699142,342.575317 
	C243.191376,334.559906 254.205032,333.589111 265.880127,339.787781 
	C271.580811,342.814423 277.437683,344.736481 284.090210,343.106628 
	C292.371002,341.077850 297.815887,336.189667 299.351837,327.825256 
	C300.859802,319.613434 297.960571,312.646637 291.349365,307.532318 
	C286.071838,303.449738 279.922546,301.542084 273.226013,301.340240 
	C268.567108,301.199860 263.944733,301.787445 259.255157,301.504425 
	C249.538849,300.918091 242.028793,296.680756 238.216293,287.880585 
	C234.197327,278.603912 235.252365,269.294830 241.608978,261.017792 
	C245.644852,255.762589 250.843643,251.844360 256.723541,248.956406 
	C259.845245,247.423187 261.631927,245.387619 262.390930,241.981354 
	C265.895874,226.252594 276.207458,217.054413 291.518524,213.983170 
	C307.820648,210.713135 322.269745,214.903290 333.442627,227.820587 
	C337.038696,231.978119 338.618805,236.957977 338.343231,242.619247 
	C338.010468,249.456757 339.943634,250.980957 346.580322,249.664612 
	C349.310333,249.123123 351.892517,248.765549 353.785706,251.440247 
	C355.626038,254.040298 355.466705,256.676025 354.129883,259.455841 
	C351.054688,265.850372 342.476440,270.418793 335.445404,269.434418 
	C332.501648,269.022278 330.832886,267.165009 329.209381,264.929016 
	C324.303589,258.172424 318.107452,257.601929 311.738556,263.178619 
	C305.636047,268.522095 305.154907,276.181885 310.623688,281.551270 
	C313.853729,284.722565 317.844788,286.527405 322.290405,286.572754 
	C330.615601,286.657654 338.929688,286.454102 347.090332,290.526031 
	C349.118835,284.339447 351.468323,278.909393 355.354492,274.232300 
	C364.413147,263.330048 376.029358,259.220337 389.919830,260.463226 
	C395.877838,260.996307 401.860443,261.433716 407.584717,258.720673 
	C421.253723,252.242203 423.706970,236.565613 412.635651,226.208267 
	C406.123383,220.115997 397.975342,217.156509 389.879639,214.060333 
	C381.187073,210.735886 372.075256,208.302536 364.508789,202.531128 
	C357.332306,197.057175 352.566132,190.433731 354.686523,180.739059 
	C354.757690,180.413589 354.868927,180.088623 354.882904,179.760101 
	C355.139374,173.742661 364.157928,173.413574 363.128113,165.624435 
	C362.370911,159.896957 367.728912,155.297379 371.605286,150.890106 
	C378.367035,143.202286 386.445007,139.786255 396.985260,139.329788 
	C413.331604,138.621857 429.589630,139.101791 445.890442,139.636612 
	C453.333191,139.880814 460.005249,137.300919 465.688904,132.556091 
	C470.091522,128.880753 472.973724,124.345383 471.831909,118.183868 
	C470.655609,111.836136 466.359467,108.501007 460.612152,106.669701 
	C453.240723,104.320892 445.417908,105.008156 437.921509,103.431145 
	C429.674683,101.696274 422.390137,98.367966 420.071320,89.505875 
	C417.637054,80.202599 422.942688,73.807678 429.892853,68.803604 
	C437.076233,63.631622 445.328125,61.046474 454.486176,59.549675 
	C453.730927,62.829285 451.476868,63.141941 449.899017,64.186890 
	C445.975983,66.784966 442.191162,69.516495 440.237793,74.013199 
	C437.499084,80.317604 439.870300,85.393288 446.563080,86.928658 
	C453.046021,88.415901 459.813751,87.976883 466.317627,89.594223 
	C476.420288,92.106491 486.103180,95.495834 494.390656,102.058922 
	C507.876587,112.738853 509.450684,130.497803 498.169220,143.559586 
	C489.796448,153.253647 478.951569,157.502853 466.479126,158.319214 
	C458.023773,158.872620 449.480164,158.600677 441.253082,161.206161 
	C433.545044,163.647293 426.960083,167.682892 422.783661,174.793976 
	C418.043762,182.864471 420.262726,190.977203 428.312042,195.821121 
	C436.821869,200.942154 446.501526,200.749481 455.891907,201.632080 
	C477.426514,203.656113 499.001709,205.513077 519.819824,211.798447 
	C532.988403,215.774261 545.583801,221.032822 554.334778,232.532410 
	C561.715088,242.230804 561.604797,258.127655 550.338074,263.528748 
	C549.061218,264.140839 548.310486,265.239624 548.363342,266.745514 
	C548.812195,279.526459 539.723389,284.707642 530.082397,289.007507 
	C519.565857,293.697906 508.266022,296.117523 497.235535,299.318970 
	C487.506134,302.142731 477.653503,304.899078 469.753174,311.843353 
	C461.616730,318.995178 462.381836,326.799347 471.843567,332.306763 
	C476.188171,334.835632 480.936981,336.394745 485.715729,337.890839 
	C487.552856,338.465973 489.692291,338.497253 491.307953,340.466034 
	C489.871796,341.834045 488.054626,342.040375 486.373199,342.088409 
	C472.892822,342.473785 460.201569,339.995392 449.191162,331.573425 
	C436.190430,321.629120 437.020721,306.897766 451.064056,298.490082 
	C458.575592,293.992920 467.039246,291.861298 475.120605,288.787170 
	C480.275269,286.826324 485.282654,284.579926 490.024506,281.778534 
	C507.741028,271.312012 511.219147,251.382233 497.740540,235.876724 
	C488.067993,224.749680 475.337341,218.629471 461.198486,215.149475 
	C466.919342,219.380341 473.044769,223.004852 478.055420,228.168396 
	C493.994354,244.593872 491.446075,262.913574 471.542877,274.308990 
	C462.692780,279.376007 453.110779,282.839661 443.852631,287.011108 
	C436.400574,290.368774 428.962463,293.726013 422.490448,298.842529 
	C410.156128,308.593567 402.911346,321.252228 410.853363,339.198395 
	C413.583893,345.368347 412.549011,348.064667 407.444550,350.815369 
	C407.317230,350.884003 407.120636,350.824005 406.136963,350.824005 
	C404.187805,340.353455 395.506500,334.553711 388.724976,327.152954 
	C378.398834,315.883972 379.633179,304.645203 391.312622,294.724884 
	C395.964539,290.773621 401.270630,288.103943 406.798462,285.726318 
	C408.443176,285.018921 410.345978,284.734314 411.900299,282.763763 
	C408.849731,281.485443 405.857422,282.075012 403.117432,282.433716 
	C390.912964,284.031494 379.997009,288.490723 371.286957,297.574738 
	C360.821228,308.489807 360.842102,319.342255 371.434814,330.024658 
	C372.724182,331.324921 373.997986,332.646942 375.194855,334.031616 
	C386.476044,347.083008 385.591522,359.716187 372.617706,371.089294 
	C367.426971,375.639618 361.572784,379.113037 355.162567,381.625854 
	C352.677460,382.599976 349.932251,383.687744 347.899567,380.911102 
	C345.914795,378.199768 347.630096,375.794464 349.194427,373.641724 
	C350.258179,372.177917 351.681610,370.962372 353.011444,369.707031 
	C364.402283,358.954102 364.807434,346.618408 354.111023,335.049042 
	C351.293732,332.001801 348.194641,329.318573 343.619751,328.101807 
	C344.698181,330.043701 345.833069,331.956635 346.845795,333.932220 
	C352.810303,345.567596 350.443481,355.582367 339.784119,363.216248 
	C335.183990,366.510712 330.345428,369.470276 325.693512,372.694916 
	C320.877075,376.033691 318.505463,380.960052 317.539520,386.538666 
	C316.255310,393.955139 322.109711,400.613495 330.751251,401.584869 
	C334.081757,401.959229 337.384613,402.346252 340.470367,403.661713 
	C349.421387,407.477478 350.895782,417.120483 343.592834,423.752014 
	C342.362854,423.720520 342.039856,422.765717 341.550507,421.877625 
	C339.175171,417.566742 335.452026,415.372986 330.567230,415.275482 
	C326.570587,415.195679 322.569977,415.337891 318.571930,415.299072 
	C301.041199,415.128998 291.123352,402.217865 295.143494,385.109955 
	C296.484802,379.401886 299.689514,374.516602 301.945770,368.772461 
	C286.877777,377.889252 280.180328,398.221069 287.237885,412.337524 
	C292.007782,421.878235 302.148621,427.404114 312.781067,426.293732 
	C317.417542,425.809509 322.056030,425.183197 326.649750,426.710724 
	C329.812134,427.762268 331.929565,429.814941 332.019623,433.154846 
	C332.108948,436.467621 329.698792,438.147827 326.835205,439.098297 
	C322.729645,440.460876 318.495819,441.484009 314.486938,443.079590 
	C308.714935,445.376862 304.108002,449.055847 302.282745,455.378601 
	C300.153595,462.754089 304.583588,470.173309 312.160156,471.486145 
	C315.380951,472.044220 318.706268,471.979401 321.222778,474.803406 
	C320.266602,471.426758 318.006744,469.676727 315.256256,468.400940 
	C312.233154,466.998627 309.828217,465.051483 309.704803,461.387756 
	C309.575104,457.537292 312.010071,455.344299 314.980682,453.533112 
	C322.177948,449.144958 330.044922,450.113190 333.643921,455.939606 
	C334.411346,457.181976 335.233795,458.696472 335.211670,460.072449 
	C335.018433,472.105194 344.419495,479.680481 356.403198,481.322632 
	C362.574158,482.168243 368.933929,482.614136 375.024078,480.102753 
	C374.720978,477.531982 372.738342,476.657898 371.273346,475.433990 
	C355.828735,462.531250 351.365936,445.887878 358.287354,427.016479 
	C361.947418,417.037231 368.024811,408.453278 373.997864,399.832153 
	C379.497955,391.893707 384.935486,383.916443 390.911072,376.299438 
	C408.239471,354.210938 431.004761,349.421967 456.753113,356.237335 
	C484.024841,363.455902 502.411285,381.923248 515.863464,405.953705 
	C520.452148,414.150818 530.349243,416.972656 538.630920,412.608704 
	C544.671570,409.425629 547.243042,404.093323 545.683594,396.710815 
	C545.552185,398.006775 545.468201,399.309601 545.281494,400.597565 
	C544.191711,408.115753 532.500000,413.481140 526.209106,409.374725 
	C523.946716,407.897980 523.454956,405.848541 523.898254,403.298248 
	C525.020081,396.845795 524.137451,395.195618 518.045227,392.695953 
	C514.638489,391.298218 511.203430,389.989380 508.560730,387.316162 
	C505.123383,383.839203 505.642517,381.884369 510.262238,380.544464 
	C517.817810,378.353119 520.641174,372.448059 518.339111,363.393524 
	C517.305542,359.328247 515.252380,355.673126 513.355530,351.964294 
	C509.656006,344.730835 506.849518,337.355286 513.091858,330.136292 
	C519.025269,323.274628 529.240295,321.183807 538.324524,324.461304 
	C541.192322,325.495972 543.670166,327.148621 546.100586,328.910706 
	C548.129761,330.381805 550.175537,331.872528 552.627869,332.509613 
	C557.830750,333.861328 561.141357,331.145111 560.934814,325.781281 
	C560.890503,324.629974 560.728088,323.483246 560.622681,322.362335 
	C567.067627,320.641907 575.278870,325.799835 577.562378,332.858429 
	C579.610413,339.189270 576.609497,344.680695 569.819519,347.476807 
	C564.165100,349.805206 558.756470,348.495514 553.233704,346.991516 
	C546.618774,345.190125 540.283813,347.361572 536.755554,352.342896 
	C532.381409,358.518463 534.136475,366.764771 540.899597,371.618927 
	C544.227539,374.007416 548.070312,375.011200 552.046021,375.719452 
	C560.693970,377.260132 566.557678,382.467468 567.909973,390.203613 
	C569.319641,398.267822 565.498596,403.982666 558.997620,408.268524 
	C557.748535,409.091980 556.355652,409.796631 555.345276,410.857300 
	C554.128967,412.134033 552.508850,413.817169 554.430786,415.545898 
	C556.023315,416.978271 558.182861,418.175690 560.247620,416.308441 
	C561.838013,414.870148 563.146912,413.105865 564.498779,411.420563 
	C580.356628,391.650726 598.710266,374.842590 622.467285,365.154999 
	C645.917053,355.592651 669.281433,355.156006 691.379883,369.250366 
	C705.852051,378.480682 714.337219,392.588074 721.051270,407.929413 
	C724.528564,415.874908 727.308960,424.066010 729.758667,432.369934 
	C730.621887,435.296295 732.103943,436.543427 735.376892,436.777649 
	C760.433350,438.570709 785.463928,440.724335 810.520081,442.521942 
	C822.474426,443.379578 834.401672,444.448151 846.330505,445.583160 
	C856.201538,446.522400 859.161438,449.363678 859.204102,459.350342 
	C859.275330,476.015839 859.255310,492.681732 859.263367,509.347473 
	C859.265991,514.847168 859.300476,520.347900 859.204224,525.846191 
	C859.104431,531.550354 857.292603,536.483154 851.627869,538.811096 
	C843.215820,542.267944 841.189636,548.825256 841.264221,557.207642 
	C841.463013,579.537537 841.658203,601.881165 841.108765,624.200928 
	C840.153137,663.022156 840.737366,701.854553 839.847107,740.667480 
	C839.533875,754.328796 839.437988,767.984436 839.343140,781.642944 
	C839.298828,788.022400 837.054749,792.460266 831.063293,795.684937 
	C818.164124,802.627380 805.656555,810.296204 792.960938,817.619751 
	C791.281067,818.588745 789.671082,819.862366 786.872070,819.870422 
	C789.026001,813.653137 789.025696,807.386230 789.195190,801.136536 
	C789.271851,798.308044 791.381104,797.184998 793.426636,796.058777 
	C803.058105,790.755920 812.663147,785.401428 822.377686,780.254333 
	C826.419189,778.112976 828.402344,775.577026 827.146973,770.666931 
	C826.331665,767.478027 828.894470,763.998169 827.059387,760.198853 
	C824.110474,763.487915 823.707764,767.598328 822.142395,771.152771 
	C819.534424,777.075073 817.877686,777.437134 813.314331,773.051331 
	C811.672485,771.473328 810.376038,769.357971 807.730347,769.068359 
	C805.292114,770.614807 804.536804,773.158997 803.631165,775.664734 
	C802.614014,778.479187 801.621094,781.337769 800.232727,783.974548 
	C798.130432,787.967102 795.895996,788.116455 793.158325,784.490967 
	C790.946167,781.561523 787.507141,778.854065 790.119690,774.401367 
	C796.677612,777.218811 797.490784,776.880981 800.350952,769.818542 
	C801.224060,767.662537 802.025146,765.450745 802.571228,763.194763 
	C803.511780,759.308838 804.429138,755.623108 808.091858,753.080383 
	C809.672974,751.982666 811.496216,749.995178 810.229980,747.502686 
	C809.391968,745.853210 808.071594,744.349121 806.036804,744.341492 
	C803.221191,744.330811 802.025452,746.543701 801.223694,748.744873 
	C799.915283,752.337402 798.917419,756.041870 797.721863,759.677124 
	C797.166321,761.366211 797.144104,763.351440 795.085327,764.611816 
	C791.913025,762.608765 789.798584,759.807251 789.644470,755.902954 
	C789.480530,751.749146 789.710388,747.581299 789.635925,743.421875 
	C789.588501,740.772095 791.276489,739.563721 793.274231,738.569092 
	C802.810364,733.821411 812.386902,729.153809 821.891846,724.344849 
	C825.287720,722.626709 829.886719,721.723938 828.741394,715.768677 
	C826.735046,716.041626 824.787598,719.040222 822.752075,716.375488 
	C821.048035,714.144775 821.514404,711.654785 822.314331,709.222778 
	C823.371155,706.010071 825.668518,704.920776 828.742310,705.857422 
	C830.201050,703.315918 829.461548,701.009949 829.613525,697.637207 
	C817.490967,706.897461 803.447571,710.049744 790.395508,716.882690 
	C787.741089,706.424377 789.896851,696.702148 789.722717,687.106323 
	C796.219727,685.339539 799.946167,677.403931 799.487244,666.410156 
	C796.938049,667.681580 796.380859,670.206726 795.113586,672.134277 
	C793.877991,674.013672 793.640625,676.613892 790.560669,677.907593 
	C787.503296,669.696350 795.004028,665.336243 797.177795,659.224060 
	C794.703186,657.441956 791.781250,660.678467 789.437927,658.043701 
	C789.621765,654.946655 792.311951,655.107483 794.415955,654.512451 
	C799.579163,653.052368 800.123596,651.931519 797.831726,647.113098 
	C796.539673,644.396912 795.286255,641.311523 792.793091,639.775024 
	C788.929443,637.393982 788.739441,634.061462 788.835083,630.297058 
	C788.936646,626.299194 788.855286,622.296143 788.987061,618.299744 
	C789.156677,613.157166 789.369385,608.134399 793.127869,603.837219 
	C795.312561,601.339417 796.021118,597.887268 795.763306,594.412781 
	C795.628845,592.600525 795.020569,590.795410 793.168335,590.605225 
	C788.809937,590.157776 788.927002,587.111145 788.932007,584.069092 
	C788.952881,571.403503 788.626831,558.721680 789.153748,546.076111 
	C789.903748,528.079468 789.524170,510.089508 789.531738,492.098663 
	C789.533447,488.025055 790.815857,485.678558 794.519104,484.033630 
	C810.196350,477.070099 825.794128,469.927460 841.418823,462.845703 
	C843.086426,462.089874 844.817383,461.433502 846.382874,460.502258 
	C848.829590,459.046722 850.877258,456.981903 849.293640,453.992065 
	C847.914429,451.388214 845.204895,451.349243 842.679749,452.390564 
	C836.830322,454.802795 831.007812,457.282623 825.206665,459.809174 
	C813.450439,464.929291 801.647583,469.950958 790.006592,475.322357 
	C785.507324,477.398346 781.138428,477.715942 776.421387,476.786743 
	C763.514160,474.244049 750.473877,472.578796 737.437256,470.854858 
	C733.049622,470.274658 731.259460,471.857330 730.895752,476.213928 
	C733.532104,478.319550 736.938477,478.192688 740.107239,478.703308 
	C750.451172,480.370239 760.836914,481.788940 771.158142,483.582062 
	C778.627808,484.879822 780.995178,487.835693 781.042725,495.507385 
	C781.111877,506.672363 780.936523,517.838623 780.955811,529.004272 
	C781.107849,616.997864 781.267517,704.991516 781.471130,792.984985 
	C781.490417,801.312012 781.701294,809.643799 782.071533,817.962402 
	C782.254395,822.071594 780.885437,824.642517 777.215088,826.841064 
	C734.611694,852.361511 690.897705,875.873901 647.062988,899.172607 
	C642.209778,901.752197 637.165588,904.018372 632.509033,906.911255 
	C625.102722,911.512390 617.385315,912.176697 609.004578,910.501526 
	C597.746460,908.251099 586.389465,906.494873 574.640869,904.473145 
M488.357269,699.982605 
	C499.524933,656.975037 511.208984,614.083862 518.576904,569.520081 
	C513.643738,571.561035 509.739471,573.412964 505.673187,574.784668 
	C502.348877,575.906128 498.667023,576.769470 496.045197,573.314392 
	C493.354950,569.769226 494.704987,566.198425 497.043396,563.198181 
	C499.798767,559.662903 503.143646,556.592712 506.000488,553.129089 
	C508.442566,550.168274 511.255310,547.280090 511.427094,542.984924 
	C509.349548,542.682739 508.282257,543.844055 507.125397,544.740479 
	C495.452087,553.786194 482.460144,560.539368 469.009705,566.437744 
	C466.313293,567.620178 464.336182,569.045898 462.650452,571.547424 
	C457.681885,578.920410 448.931976,580.492737 442.171997,575.591553 
	C436.315094,571.345093 435.206757,562.424622 439.792664,556.441345 
	C444.997437,549.650574 453.569153,548.710876 460.483276,554.487976 
	C462.358765,556.055115 463.827362,556.247925 465.827362,555.288269 
	C485.928741,545.642883 503.934509,533.373535 516.689209,514.569397 
	C518.526306,511.861053 520.409546,509.092743 520.513245,505.591675 
	C518.062927,504.200653 515.748779,505.418030 513.491211,505.301880 
	C511.159821,505.181946 508.865082,505.157166 506.585724,504.455078 
	C499.401398,502.242218 491.959015,505.725555 488.178192,513.170044 
	C493.161957,513.829285 498.068207,514.758606 498.304321,521.171570 
	C498.521332,527.065308 492.526367,532.706299 486.578125,532.361267 
	C484.830597,532.259827 483.141785,531.898315 482.426849,530.143677 
	C481.591278,528.093079 483.328796,527.216492 484.614136,526.186096 
	C486.014923,525.063110 488.223053,524.582886 488.269867,522.143372 
	C485.934479,521.511475 484.459686,522.782043 482.880005,523.609741 
	C479.301544,525.484741 475.504791,527.213196 471.530731,527.193298 
	C455.123474,527.111145 439.707825,531.977783 424.068878,535.942261 
	C411.159790,539.214783 398.084961,541.849548 385.854309,547.360657 
	C374.632782,552.417114 366.729065,559.529724 363.331299,572.523926 
	C349.017242,627.265320 333.024902,681.543884 315.838470,735.461548 
	C313.431305,743.013306 311.466522,750.702820 308.242889,758.044861 
	C311.900208,760.248230 315.643951,760.301208 319.154114,761.122192 
	C366.467590,772.187744 414.081970,781.869690 461.570404,792.131653 
	C465.020355,792.877197 466.873260,792.492920 467.633636,788.704407 
	C473.558472,759.184814 480.730804,729.952515 488.357269,699.982605 
M729.478760,487.189301 
	C726.488403,486.908844 723.625916,486.589203 720.998901,488.875244 
	C710.154419,498.312378 697.165161,503.207336 683.367126,506.387726 
	C675.194946,508.271362 666.899719,509.483521 658.607666,511.191772 
	C660.836914,511.991394 663.066040,512.366760 665.301880,512.696899 
	C678.298401,514.615967 691.323364,516.362183 704.282410,518.506836 
	C710.490295,519.534241 713.120972,522.609192 713.196411,528.706543 
	C713.491028,552.522766 712.954346,576.348206 714.006592,600.156311 
	C714.166626,603.778259 712.434021,606.000916 709.241760,607.570190 
	C683.535583,620.207458 657.884827,632.957458 632.168579,645.574158 
	C626.767822,648.223755 625.542542,647.419556 625.854675,641.538391 
	C627.020630,619.560913 626.659485,597.567261 626.592712,575.580139 
	C626.578125,570.777527 628.290466,567.650085 632.519714,565.631897 
	C642.138184,561.041687 651.722168,556.379211 661.331299,551.769409 
	C672.892029,546.223389 684.500671,540.775574 696.008667,535.122498 
	C699.318420,533.496704 702.972839,531.223694 702.457520,527.060242 
	C701.905518,522.600769 697.329773,522.965454 694.063660,522.386902 
	C688.008911,521.314392 681.868835,520.732788 675.797424,519.743591 
	C663.377136,517.720154 650.978882,515.562378 638.571533,513.459839 
	C655.735657,518.733398 674.018555,519.388672 690.982056,525.664856 
	C690.188110,528.200684 688.992676,528.590027 687.976257,529.060303 
	C667.877441,538.359741 647.770203,547.641113 627.645203,556.883606 
	C623.012817,559.011108 618.200012,559.700073 613.051270,559.042969 
	C602.164368,557.653503 591.223694,556.689026 580.331665,555.335876 
	C575.617493,554.750244 572.374451,556.289917 569.968201,560.378052 
	C567.736023,564.170532 568.149475,565.485779 572.579956,565.582764 
	C584.417236,565.842041 596.056641,568.124268 607.851135,568.822083 
	C613.618652,569.163391 616.043518,571.681335 616.010742,577.444702 
	C615.882874,599.933777 615.551331,622.421692 615.337524,644.910400 
	C615.303406,648.501099 613.668335,650.124573 610.076721,649.809326 
	C591.008728,648.135071 571.940674,646.461975 552.870728,644.810425 
	C541.593018,643.833618 530.307983,642.938721 519.033997,641.921204 
	C514.960205,641.553467 513.870056,643.995178 513.445007,647.304382 
	C512.983643,650.895569 515.312744,651.380615 518.042969,651.649475 
	C548.169189,654.615173 578.308105,657.464722 608.406433,660.692627 
	C617.271362,661.643372 625.307678,660.831787 633.370728,656.475037 
	C658.279785,643.016235 683.457275,630.053833 708.552246,616.940247 
	C709.931702,616.219482 711.271484,614.854370 713.978943,616.250305 
	C714.637939,696.346680 713.732788,776.852539 713.293579,858.502502 
	C721.020813,853.802917 722.680725,848.043884 722.676453,841.109558 
	C722.612122,737.132568 722.674011,633.155518 722.541626,529.178711 
	C722.535461,524.344727 723.964111,521.710754 728.346985,519.555725 
	C740.449036,513.605347 752.324951,507.190094 764.217407,500.822449 
	C766.359741,499.675354 768.912415,498.156891 768.405579,495.192169 
	C767.891846,492.186981 764.957031,491.750916 762.544861,491.416412 
	C751.839050,489.931824 741.108582,488.625122 729.478760,487.189301 
M710.656555,472.083740 
	C699.609009,483.781311 685.061890,487.821289 669.954224,490.318237 
	C641.864807,494.960693 613.886597,492.374969 585.929993,488.640778 
	C579.847839,487.828369 573.844055,485.587921 566.312866,486.829407 
	C575.598206,491.269135 584.484070,492.780914 593.185547,494.646332 
	C618.020752,499.970490 643.087646,500.319672 668.125671,496.401886 
	C682.469666,494.157471 696.638184,490.776001 708.581177,481.795898 
	C718.394043,474.417450 723.160889,464.438171 721.238464,452.159119 
	C718.308289,433.442566 712.112244,415.681793 703.569458,398.813354 
	C690.648865,373.300659 667.708252,363.777832 640.418945,372.136658 
	C612.747681,380.612457 591.827759,398.491821 573.555359,420.037781 
	C567.534851,427.136841 562.463257,434.886688 558.912231,443.764069 
	C582.309814,427.711578 603.704834,408.053070 633.652100,403.992798 
	C601.891785,421.573425 579.725464,450.242554 551.356750,472.991455 
	C556.629700,474.430267 560.589966,472.878265 564.526062,471.989136 
	C580.859375,468.299652 595.031311,459.673340 609.472595,451.780304 
	C626.454163,442.498810 643.454407,433.367493 662.559265,429.122955 
	C676.370117,426.054565 690.010803,425.525146 702.814941,432.859772 
	C717.773743,441.428619 721.187622,457.639557 710.656555,472.083740 
M381.888641,458.667511 
	C375.258087,453.121307 369.675751,446.786621 371.726227,437.409912 
	C373.890869,427.511261 381.591278,423.311829 390.761902,421.365204 
	C403.575104,418.645294 415.146576,422.597473 426.183990,428.527435 
	C436.473419,434.055542 445.919556,440.910980 455.215454,447.959656 
	C462.923706,453.804504 470.907990,459.227661 479.651001,463.422760 
	C481.124359,464.129669 483.779266,465.743500 484.190308,463.036499 
	C485.013031,457.618073 487.385406,452.216736 484.231140,446.524811 
	C475.501556,430.772156 464.549530,416.888458 450.934113,405.090576 
	C449.267822,403.646667 447.059357,402.581543 446.011627,399.144043 
	C466.396057,405.182098 480.242035,418.817627 493.463196,433.960724 
	C498.001801,428.696503 501.855957,423.902344 506.489746,419.859589 
	C508.174622,418.389618 507.217438,416.772461 506.425720,415.334229 
	C493.663483,392.149872 475.974487,374.461456 450.030792,366.821533 
	C431.768158,361.443481 415.500000,364.945038 402.615479,380.041565 
	C399.035095,384.236664 395.698883,388.585938 392.667236,393.161865 
	C384.122894,406.058716 374.887665,418.588715 369.063965,433.056091 
	C364.862305,443.493988 367.067017,453.014069 374.740021,461.182892 
	C379.821320,466.592560 385.922302,470.623596 392.708221,473.591400 
	C411.527649,481.821930 431.303192,484.645905 451.698486,483.985535 
	C461.109924,483.680847 470.445221,482.915009 479.573792,479.985809 
	C477.383911,479.152771 475.174164,478.491608 472.949890,478.438416 
	C458.801239,478.099854 444.680267,477.234039 430.673645,475.278961 
	C413.638336,472.901245 396.809845,469.632172 381.888641,458.667511 
M431.715820,515.106201 
	C445.770538,509.323334 459.699982,503.282623 473.174957,495.755829 
	C471.573883,493.927704 470.265198,494.601959 468.998352,494.759888 
	C464.713989,495.293945 460.437988,496.073334 456.136780,496.264984 
	C430.681000,497.399353 405.454773,500.352905 380.492767,505.484833 
	C354.355103,510.858490 332.442841,522.839294 317.656921,545.878723 
	C316.988129,546.920776 315.712067,547.818726 316.724030,549.834900 
	C320.426117,548.776917 324.172028,547.563660 327.988556,546.643250 
	C338.408508,544.130310 343.147644,548.987427 340.335205,559.184631 
	C339.760559,561.268127 338.898468,563.317383 338.660156,565.437622 
	C338.333618,568.342407 336.665833,571.207275 337.856628,574.874390 
	C338.880829,573.543396 339.581848,572.817993 340.070343,571.970215 
	C350.432068,553.986328 365.795471,541.703186 384.377380,533.108398 
	C399.504272,526.111755 415.592346,521.639404 431.715820,515.106201 
M569.221924,824.070618 
	C581.755127,825.615173 594.280518,827.229919 606.829651,828.631470 
	C608.793213,828.850769 611.458923,829.618835 612.632141,827.055237 
	C613.821411,824.456360 611.936951,822.826416 610.268921,821.066040 
	C606.487366,817.074829 606.753967,813.686401 610.861023,810.000732 
	C614.038757,807.148865 613.576355,804.409912 609.623596,803.069519 
	C608.375305,802.646240 607.038818,802.447327 605.726807,802.252686 
	C589.110840,799.786499 572.453064,797.703247 555.733887,796.011230 
	C532.075562,793.617004 508.619293,789.468811 484.877014,787.690918 
	C481.270355,787.420898 479.957581,788.884094 479.506195,791.872253 
	C479.260040,793.502075 479.303101,795.197021 479.396118,796.852478 
	C479.644501,801.272461 478.915436,804.946960 473.493774,805.447754 
	C472.153290,805.571533 471.336243,806.281372 471.264954,807.667725 
	C471.185608,809.211304 471.232361,810.880310 472.953186,811.456482 
	C474.822601,812.082336 476.801514,812.467957 478.763306,812.717224 
	C490.967804,814.268127 503.182831,815.735962 515.390686,817.260864 
	C533.042358,819.465698 550.690796,821.695618 569.221924,824.070618 
M487.454987,839.263306 
	C482.034027,834.426575 480.542023,825.863098 472.960785,823.160522 
	C471.410553,824.297913 471.579498,825.521240 471.380096,826.649902 
	C470.568878,831.242126 472.972992,834.632568 475.038605,838.434753 
	C477.605011,843.158752 480.377197,847.604675 484.083618,851.462036 
	C485.508575,852.945007 487.277527,854.192566 489.411133,853.528137 
	C494.344177,851.991943 497.853363,848.394531 501.434296,844.881714 
	C504.002930,842.361877 500.993134,839.980042 501.295654,837.081726 
	C505.887939,839.276123 510.526947,839.917114 512.090576,845.933533 
	C513.173279,850.099731 516.791626,853.508362 520.085571,856.628052 
	C521.605286,858.067261 523.265564,858.951050 525.490112,858.445740 
	C533.220581,856.689636 538.268677,849.274597 536.381897,840.764465 
	C540.385010,844.131409 545.181274,844.292603 547.033691,849.727722 
	C548.622070,854.388428 552.428223,858.082336 556.139587,861.472290 
	C557.478333,862.695068 559.017639,863.733765 561.059509,863.518555 
	C568.096863,862.776794 575.012756,853.850464 573.658997,846.938171 
	C575.576904,847.547791 577.395935,848.578491 579.218018,848.583923 
	C581.228333,848.589844 583.241516,847.655029 585.463379,847.075256 
	C582.346130,854.304749 582.344666,854.305786 587.142944,860.944702 
	C587.630554,861.619263 588.127258,862.289551 588.656616,862.931396 
	C594.650391,870.199951 598.228088,870.419250 605.136963,863.987610 
	C607.116699,862.144592 608.700867,860.053894 609.689453,857.511047 
	C610.106506,856.438416 610.445740,854.837769 611.252441,854.495544 
	C616.299866,852.354187 614.532776,848.230835 614.252808,844.643982 
	C614.132141,843.097717 613.906677,841.104431 611.851379,840.663086 
	C609.994263,840.264343 608.625977,841.510010 607.587830,842.773499 
	C605.053711,845.857117 602.678040,849.071960 600.269714,852.257568 
	C597.220398,856.290894 596.175537,856.351196 593.342590,852.325378 
	C590.473267,848.247864 587.945129,843.912537 584.873474,839.999390 
	C580.695068,834.676453 575.801636,834.734802 571.447388,839.749573 
	C568.937561,842.640137 566.268860,845.405090 563.921753,848.421143 
	C561.489990,851.546143 559.561279,851.452881 557.448853,848.167480 
	C554.658813,843.828125 551.963135,839.398621 548.813477,835.327698 
	C544.836914,830.188110 539.646423,830.069092 535.186768,834.738831 
	C532.659912,837.384705 530.278015,840.179565 527.967407,843.018555 
	C525.442566,846.120667 523.511047,845.636902 521.447144,842.483521 
	C518.988098,838.726501 516.405273,835.033569 513.640076,831.497559 
	C508.530060,824.963257 503.193451,824.992371 498.104126,831.395874 
	C496.446716,833.481140 494.871429,835.639099 493.105988,837.628418 
	C491.811707,839.086853 490.474182,840.829773 487.454987,839.263306 
M287.981812,764.570496 
	C264.788086,761.227539 241.247391,760.330994 218.373978,754.761719 
	C215.186829,753.985718 213.994919,755.030701 214.055649,758.119202 
	C214.117844,761.282959 214.115341,764.447876 214.149902,767.612183 
	C214.234436,775.352966 214.391647,775.578735 222.036835,776.683594 
	C263.170258,782.627808 304.305511,788.559204 345.443542,794.471558 
	C352.543579,795.491943 354.257568,793.086548 351.587830,786.039001 
	C350.570312,785.787292 350.148560,786.615356 349.528503,787.124573 
	C345.353271,790.553467 341.260254,789.157471 339.917419,783.861633 
	C338.329712,777.600098 336.959869,776.747803 330.153595,777.891785 
	C329.792633,781.640076 329.821655,786.631348 324.480743,785.898438 
	C317.924927,784.998840 319.442017,779.377319 320.150391,774.622864 
	C317.150055,773.834534 314.453827,773.019348 311.708649,772.433838 
	C308.771210,771.807312 305.617004,771.531311 303.186371,769.776306 
	C298.848114,766.644043 294.144775,764.951050 287.981812,764.570496 
M275.620789,800.105713 
	C273.820190,802.287537 272.018890,804.468750 270.219116,806.651245 
	C267.985748,809.359375 265.952271,809.454956 263.943512,806.336487 
	C262.051361,803.399048 259.992920,800.569092 258.026764,797.678772 
	C252.345306,789.327026 247.545105,788.868042 241.176697,796.752380 
	C233.235931,806.583374 234.083176,807.681030 226.021118,795.192749 
	C224.132233,792.266907 222.784042,788.896851 219.416473,787.264709 
	C216.457932,785.830750 214.163681,785.819824 214.274261,790.125610 
	C214.346008,792.918884 214.287766,795.715637 214.287766,798.681335 
	C219.462143,798.429138 220.143051,802.457886 221.862625,805.334961 
	C230.307205,819.464172 237.334396,819.742981 246.520569,806.084473 
	C248.957428,802.461243 250.979309,803.279419 253.030655,806.088379 
	C254.794968,808.504211 256.227325,811.159546 257.910614,813.638184 
	C264.196014,822.893372 266.600220,823.227905 275.110260,816.134827 
	C280.476257,811.662231 280.527191,811.245911 276.706909,805.682251 
	C276.110016,804.812927 274.900055,804.021606 276.109802,802.348999 
	C280.050293,804.648254 283.095001,809.213379 288.625031,807.414978 
	C287.964600,813.254700 293.444855,823.074158 298.259247,825.264282 
	C298.849060,825.532532 299.556030,825.781433 300.173157,825.714050 
	C305.583099,825.122925 309.009399,821.459412 312.298798,817.668030 
	C314.986816,814.569885 311.761963,812.568176 310.800812,810.139526 
	C310.671295,809.812256 310.973663,809.313965 311.237579,808.234070 
	C314.146301,811.145569 317.358490,812.714600 320.806427,813.347717 
	C321.719238,820.627869 326.535492,825.105530 331.037201,829.716797 
	C332.565399,831.282166 334.759521,831.342834 336.621674,830.202393 
	C341.728912,827.074463 347.008789,824.053711 348.657684,817.600098 
	C350.044891,816.775696 351.717468,818.246216 353.135406,816.796265 
	C354.092651,815.133118 353.840698,813.061646 353.448120,811.173767 
	C352.995575,808.997437 352.914948,806.182007 350.149414,805.505188 
	C347.754639,804.919006 346.129120,806.766602 344.670227,808.368835 
	C342.428558,810.830750 340.314789,813.408569 338.115540,815.909790 
	C334.459808,820.067078 333.631226,819.976746 330.546143,815.151123 
	C328.305756,811.646790 326.244171,808.012085 323.793304,804.661987 
	C319.796204,799.198242 315.633667,798.985596 310.980591,803.845093 
	C308.564331,806.368469 306.319183,809.056091 304.007629,811.679077 
	C301.929657,814.037170 300.187439,813.783936 298.445435,811.202942 
	C295.932892,807.480408 293.434296,803.727417 290.629242,800.228210 
	C285.886993,794.312561 281.541840,794.206970 275.620789,800.105713 
M538.611938,478.268311 
	C538.800232,473.953644 538.442017,469.637817 539.162476,465.319031 
	C541.039368,454.067749 545.366821,443.988007 552.638550,435.141449 
	C554.013245,433.469116 556.165039,431.508972 554.534241,428.959137 
	C552.942993,426.471069 550.165894,426.662201 547.726990,427.156769 
	C544.812256,427.747833 541.898987,428.590637 539.159363,429.739838 
	C535.656860,431.208984 532.889404,431.011475 530.300476,427.915894 
	C527.786316,424.909698 524.322693,423.926575 520.400024,424.277405 
	C516.147949,424.657715 512.812988,426.819794 509.989075,429.697876 
	C500.126556,439.749329 494.954956,451.923676 494.447510,465.966827 
	C494.215057,472.400269 497.113953,479.680481 500.621246,482.561249 
	C499.538177,472.425110 498.147644,462.389099 504.549377,453.316650 
	C505.136108,458.277069 505.532837,463.171051 507.532379,467.725800 
	C509.584412,472.400024 511.974457,476.814758 517.255371,481.046082 
	C517.515930,466.263092 518.643616,452.935150 528.941833,442.678070 
	C528.504333,450.182098 526.071594,457.420868 527.648682,464.859497 
	C529.246460,472.396179 534.007263,478.331085 538.615112,484.541565 
	C538.615112,482.751617 538.615112,480.961639 538.611938,478.268311 
M510.610016,856.916809 
	C507.922668,852.593323 504.854889,851.913757 500.968842,855.612549 
	C498.929840,857.553223 496.496857,859.075195 494.282440,860.837402 
	C489.756348,864.439392 486.997986,864.273438 483.203827,859.915405 
	C481.456787,857.908691 479.991302,855.659058 478.286316,853.612793 
	C476.865753,851.907837 475.653290,849.770447 472.778107,849.773682 
	C471.865051,853.017029 471.844818,855.853394 473.734436,858.544739 
	C474.394135,859.484497 475.327667,860.854370 474.446259,861.736816 
	C469.964386,866.224304 475.035431,866.716919 477.138214,867.591187 
	C484.419189,870.618286 492.318665,871.272705 500.004639,872.558777 
	C532.158142,877.939026 564.349426,883.096313 596.549988,888.189331 
	C601.124084,888.912781 605.718872,889.984314 610.416260,889.606445 
	C612.540344,889.435669 614.330994,888.686951 614.591309,886.153687 
	C614.820679,883.921570 613.677185,882.816101 611.658936,882.178040 
	C610.455444,881.797607 609.036987,881.533936 608.486450,880.030762 
	C608.790466,878.082153 610.380554,877.468262 611.872498,876.739441 
	C615.282593,875.073792 614.362366,871.978149 613.303162,869.837769 
	C611.922058,867.046753 609.879517,869.307495 608.379761,870.360474 
	C605.792908,872.176392 603.272217,874.103638 600.853088,876.138062 
	C596.054688,880.173340 593.822510,880.087952 589.558655,875.283142 
	C587.459717,872.917847 585.495056,870.429749 583.533447,867.946838 
	C578.907593,862.091614 578.063293,861.969727 572.415161,866.555847 
	C570.216553,868.341125 568.036133,870.149048 565.828308,871.922791 
	C561.901245,875.077576 557.845520,874.915222 554.260498,871.399475 
	C553.193848,870.353394 552.272156,869.155029 551.321655,867.995605 
	C541.833679,856.423645 541.835938,856.421936 530.468201,866.382935 
	C526.525146,869.838196 521.708252,869.759399 518.091064,865.907959 
	C515.587097,863.241821 513.393494,860.284180 510.610016,856.916809 
M542.575745,541.858704 
	C540.849243,545.856079 538.431824,549.445496 536.012329,553.037537 
	C535.113220,554.372314 533.786987,555.625427 535.305420,557.447083 
	C539.923279,562.987061 540.714539,569.568909 540.396912,576.456909 
	C540.331665,577.870789 539.835083,579.480774 541.993042,580.995056 
	C547.589478,567.758362 559.164795,559.115417 566.749939,547.424316 
	C568.374146,544.920898 569.819214,542.257507 571.003174,539.519287 
	C578.655518,521.820740 568.239868,501.362396 549.443909,497.023071 
	C544.427673,495.865021 543.607178,496.549561 544.906250,501.526184 
	C548.416138,514.971863 548.105469,528.178772 542.575745,541.858704 
M223.409943,818.076172 
	C221.269424,815.685303 219.859879,812.457581 216.087967,811.524597 
	C212.836639,816.811890 217.099091,819.776489 219.475861,822.994385 
	C218.601578,825.013550 215.135239,823.469727 215.540070,826.272339 
	C215.923782,828.928833 218.486160,828.502075 220.308655,829.006531 
	C221.427795,829.316406 222.581879,829.519775 223.731781,829.695862 
	C249.542542,833.648499 275.330414,837.761414 301.176605,841.467529 
	C315.506866,843.522400 329.780334,845.867126 344.053833,848.254578 
	C347.843750,848.888550 351.908112,848.763794 354.198242,844.860352 
	C355.891907,841.973511 354.014221,833.733765 351.688263,831.641479 
	C350.176056,830.281189 349.025696,830.944885 347.746979,831.945740 
	C344.993317,834.100891 342.212738,836.222534 339.414246,838.319214 
	C335.196411,841.479309 331.633636,841.270569 327.933563,837.411621 
	C325.634216,835.013550 323.545380,832.403625 321.471161,829.801819 
	C317.802399,825.200073 316.281036,825.083313 311.805237,829.128357 
	C310.078400,830.689087 308.313110,832.224304 306.443787,833.606812 
	C302.096710,836.821838 297.226288,836.220764 293.649445,832.075256 
	C291.690369,829.804749 289.829163,827.450012 287.911499,825.143494 
	C283.485077,819.819580 282.900238,819.433899 277.575806,824.117737 
	C266.216797,834.110046 263.424622,832.538818 255.217911,821.365479 
	C250.704880,815.221069 250.149475,815.363892 244.245438,819.809265 
	C242.383392,821.211243 240.601868,822.719666 238.763336,824.153503 
	C235.189362,826.940613 230.733383,826.648010 227.601105,823.318909 
	C226.235199,821.867188 225.074905,820.222046 223.409943,818.076172 
M673.172546,779.614746 
	C660.131958,785.930115 647.101074,792.265747 634.043701,798.546204 
	C630.854370,800.080322 628.900696,802.109619 630.187073,805.985413 
	C632.529907,806.405334 635.143555,806.411194 635.648499,809.431030 
	C636.175903,812.584839 635.604614,815.617859 632.804321,817.408875 
	C629.782166,819.341736 629.322632,821.421021 631.017090,824.269836 
	C633.265564,824.489807 634.772278,823.333191 636.368408,822.514648 
	C644.521240,818.334045 652.641357,814.089661 660.798340,809.917236 
	C671.472168,804.457275 682.132202,798.975830 693.122375,794.151184 
	C695.917603,792.924011 700.012756,791.959961 700.320984,788.591675 
	C700.946167,781.760742 700.507690,774.832520 700.507690,767.578613 
	C690.190186,769.729858 683.338440,777.486145 673.172546,779.614746 
M297.528229,530.216187 
	C289.410889,529.479126 281.282623,528.844849 273.178192,527.986023 
	C248.018753,525.319885 222.804779,523.294067 197.577530,521.419678 
	C195.431610,521.260315 193.244507,521.140503 191.197952,522.153564 
	C189.767227,522.861816 188.596863,523.860535 188.569107,525.506531 
	C188.540588,527.199463 189.709778,528.326050 191.250137,528.721863 
	C194.141068,529.464905 197.058472,530.286682 200.013428,530.570984 
	C232.131866,533.661743 264.254639,536.711243 296.391602,539.601074 
	C300.341858,539.956238 303.437378,540.741455 304.260223,546.505066 
	C308.240082,541.052856 311.434723,536.676331 315.467285,531.151978 
	C308.620697,531.668823 303.567657,530.588684 297.528229,530.216187 
M638.955200,846.773499 
	C637.264099,845.187988 636.163879,845.866882 634.978638,847.552795 
	C631.815552,852.052063 633.104675,856.256836 638.690002,860.029541 
	C640.994812,861.586304 642.658813,861.442200 644.034668,859.048523 
	C646.859314,854.134033 650.330872,849.065125 650.333618,843.490601 
	C650.336853,837.002258 655.002808,836.323486 658.974060,833.845398 
	C655.875427,839.734680 659.857422,842.593994 663.363770,845.684937 
	C665.883972,847.906555 667.734131,847.492310 669.218811,844.513550 
	C671.671448,839.592590 674.111023,834.630737 675.263916,829.247253 
	C676.388977,823.993225 680.960632,822.247681 684.566101,818.961792 
	C681.340332,824.636536 682.653687,828.910828 687.294556,832.688538 
	C690.871399,835.600037 692.848022,835.507324 695.174805,831.388794 
	C696.724731,828.645447 698.235840,825.800598 699.189331,822.817444 
	C700.928894,817.374756 701.286133,811.804138 699.606018,805.008179 
	C695.233826,810.845215 695.251099,817.369263 691.813049,821.775146 
	C690.048401,821.893921 689.306763,821.138489 688.661316,820.420532 
	C687.112671,818.698242 685.605164,816.930420 684.196472,815.092407 
	C680.524170,810.301086 676.082703,810.506958 673.127502,815.767212 
	C672.242188,817.343079 671.873047,819.200134 671.088135,820.842712 
	C669.109985,824.982788 668.684448,829.787170 665.986755,833.685181 
	C662.652832,832.697449 661.466064,829.946106 659.644958,827.883179 
	C655.345520,823.012878 652.056213,823.349182 648.889587,829.111694 
	C646.475098,833.505615 644.989502,838.255432 643.618958,843.069885 
	C643.080688,844.960693 643.127869,848.114075 638.955200,846.773499 
M677.612305,840.224182 
	C675.248413,844.126099 674.330505,848.537903 673.019104,852.832336 
	C671.166565,858.898987 666.803955,859.843201 662.358032,855.395020 
	C660.287842,853.323669 658.334412,851.020447 655.120483,850.357788 
	C654.391663,851.405212 653.657349,852.136536 653.306335,853.020081 
	C651.589294,857.342407 650.021973,861.724121 648.312012,866.049438 
	C645.869934,872.226501 641.271484,873.095154 636.838318,868.262817 
	C635.190369,866.466736 633.616699,864.570312 631.033508,864.164062 
	C628.723511,869.212830 631.103394,872.308228 635.280029,874.455444 
	C629.721191,879.158997 629.721191,879.158997 630.984375,884.860779 
	C631.604248,884.736023 632.290955,884.737854 632.843201,884.466370 
	C653.751587,874.184692 674.191406,863.023560 694.251465,851.188416 
	C700.480774,847.513184 701.053955,844.793762 699.197571,836.938354 
	C693.060852,846.849060 693.040405,846.852356 684.019165,839.476929 
	C683.632812,839.161194 683.244690,838.847412 682.854248,838.536682 
	C680.784302,836.888977 679.206482,837.437622 677.612305,840.224182 
M371.704834,859.695068 
	C375.332977,860.265869 375.670197,858.049133 375.877716,855.205444 
	C376.763763,843.062866 376.742188,830.905579 376.605530,818.750610 
	C376.500793,809.434753 376.020844,800.123657 375.844421,790.807800 
	C375.769318,786.844116 373.367889,785.536926 370.056580,785.463318 
	C366.383057,785.381653 367.023254,788.382568 367.055878,790.561462 
	C367.374756,811.877075 367.759735,833.191772 368.168701,854.505920 
	C368.208862,856.599487 367.853241,859.053528 371.704834,859.695068 
M455.596313,874.539307 
	C459.077545,873.628967 457.707642,870.746765 457.650116,868.753723 
	C457.055786,848.162109 455.649963,827.596863 455.666779,806.984253 
	C455.667328,806.321594 455.707092,805.622498 455.521667,805.002258 
	C454.626709,802.009277 451.952118,801.668823 449.529968,801.518005 
	C446.844208,801.350647 446.989319,803.674133 447.008118,805.468323 
	C447.224121,826.074402 447.752441,846.668762 448.939514,867.247986 
	C449.181183,871.437317 450.769775,873.777710 455.596313,874.539307 
M255.734100,734.163635 
	C256.029663,728.709167 258.100616,723.137817 254.877609,717.509888 
	C248.850128,720.074829 243.456070,722.972534 239.362854,727.712769 
	C235.460144,732.232422 236.149719,735.648193 241.386246,738.384399 
	C242.998093,739.226624 243.268799,740.587402 243.746140,741.954285 
	C244.899796,745.257812 246.940033,745.690125 249.963120,744.280151 
	C253.982040,742.405823 255.142899,738.941528 255.734100,734.163635 
M516.889343,559.120056 
	C535.263916,546.343872 544.234192,516.469360 532.979980,503.396698 
	C532.876587,524.864807 525.202393,543.281433 513.715088,560.588684 
	C514.592712,560.216553 515.470337,559.844421 516.889343,559.120056 
M552.010986,779.512573 
	C559.946594,771.743958 558.252441,761.899780 558.844910,750.944153 
	C550.543335,756.537048 543.721130,761.197876 540.168701,769.382690 
	C537.737854,774.983398 543.518555,776.662781 545.258118,780.213257 
	C546.580933,782.913086 549.332275,780.693787 552.010986,779.512573 
M582.645996,771.639404 
	C580.140076,762.337769 572.929260,757.319763 565.869080,751.692993 
	C562.777039,757.302856 562.378296,772.407776 564.600281,776.740051 
	C566.182007,779.824097 569.040894,781.070312 571.976746,782.267761 
	C572.799377,782.603394 573.938477,782.622009 574.254395,781.895935 
	C575.775574,778.399353 578.638916,776.626404 581.916260,775.133362 
	C582.469238,774.881470 582.433411,773.337219 582.645996,771.639404 
M527.081055,744.145569 
	C521.200684,746.366455 525.766907,750.623779 525.255737,753.877319 
	C524.814087,756.688416 526.707886,758.064392 529.246704,758.659729 
	C536.730713,760.414612 549.041870,754.098389 552.580811,746.332947 
	C544.467041,743.419067 536.255615,742.577515 527.081055,744.145569 
M278.310059,743.605225 
	C280.734436,741.807373 280.217163,739.174500 279.182251,737.304016 
	C275.143463,730.004639 269.355804,724.245544 262.094299,718.878662 
	C260.650787,727.006470 260.976044,734.180603 263.371338,741.181152 
	C264.501465,744.484131 267.087158,746.482056 270.359772,747.802612 
	C273.906158,749.233643 274.158691,745.310608 276.281158,744.506653 
	C276.744751,744.331116 277.182800,744.088074 278.310059,743.605225 
M594.921387,754.676270 
	C595.322083,752.512512 598.023926,750.543274 594.890259,748.147644 
	C590.029358,744.431519 576.163574,744.045227 570.395813,748.189880 
	C576.017273,754.276794 580.964539,761.086243 590.138672,761.700989 
	C595.198547,762.040100 596.088806,760.573914 594.921387,754.676270 
M291.798065,698.714294 
	C290.202057,693.373535 285.844208,693.931702 282.039520,694.723938 
	C274.945770,696.200928 270.692993,701.520752 266.221130,707.297363 
	C272.068817,710.188538 277.721222,709.727783 283.262756,709.674255 
	C291.372467,709.595886 293.432159,707.027649 291.798065,698.714294 
M595.093201,682.350220 
	C591.047119,685.037048 592.306091,688.572754 593.487305,692.134888 
	C595.200012,697.299988 599.311401,697.846619 603.900513,697.811584 
	C610.260559,697.762939 613.096924,695.278748 613.549805,689.048462 
	C613.827148,685.232422 610.669678,682.274780 605.186157,681.571533 
	C602.074524,681.172607 598.893005,680.865356 595.093201,682.350220 
M288.463013,730.974731 
	C291.003052,731.073608 292.994995,730.657104 293.510590,727.506775 
	C294.077850,724.040588 295.265045,720.710388 291.048248,718.509766 
	C284.811096,715.254761 278.077545,714.521118 271.236267,714.207458 
	C269.942535,714.148071 268.503235,714.013611 267.509430,716.379822 
	C273.209869,722.311890 278.382446,729.265686 288.463013,730.974731 
M541.452820,676.555786 
	C538.815552,677.485413 538.147644,679.484131 538.267517,682.070618 
	C538.589478,689.015442 542.451172,692.593201 549.947205,692.764648 
	C555.474792,692.891174 557.659058,691.198242 558.597595,686.060425 
	C559.481995,681.219177 557.678162,678.443298 552.601929,676.769897 
	C549.191956,675.645874 545.742065,675.781128 541.452820,676.555786 
M553.661804,737.612854 
	C549.002136,731.628967 545.147949,724.704163 537.167114,722.420898 
	C534.679443,721.709229 531.378357,720.907471 529.961670,723.791199 
	C528.604614,726.553467 528.320312,729.969727 530.497986,732.775940 
	C531.390442,733.926025 532.589417,734.959106 533.857910,735.675415 
	C539.160339,738.669922 545.093018,739.641968 550.992310,740.586304 
	C552.469055,740.822815 554.720886,741.188538 553.661804,737.612854 
M570.655701,711.140991 
	C564.858826,718.604065 564.950989,727.145935 565.559998,737.330078 
	C572.021179,731.390320 577.789246,726.736328 580.953491,719.771118 
	C582.803040,715.700134 580.676025,712.060364 578.243896,709.335999 
	C576.118652,706.955383 573.391357,709.186035 570.655701,711.140991 
M229.328003,722.305298 
	C238.159378,723.690002 243.592438,717.992676 250.644730,712.797424 
	C243.456421,709.048645 237.267639,706.630371 230.261841,707.192871 
	C224.910248,707.622559 224.144714,708.812744 225.668701,713.946777 
	C225.966217,714.949036 226.116928,715.867249 225.714798,716.840576 
	C224.501022,719.778687 226.040390,721.185120 229.328003,722.305298 
M512.111267,683.283508 
	C513.268372,688.839294 517.798767,689.146667 522.130737,689.619568 
	C525.204468,689.955078 528.210693,689.755676 530.021729,686.648926 
	C532.019348,683.222168 532.644104,679.795349 529.725220,676.510071 
	C526.953796,673.390808 518.155273,671.776917 514.242310,673.817383 
	C510.428162,675.806274 510.992035,679.179810 512.111267,683.283508 
M568.764709,692.884277 
	C571.196350,695.133240 574.290894,694.797424 577.225281,695.010010 
	C581.915894,695.349792 584.806091,693.212952 585.699158,688.555603 
	C586.606262,683.825195 584.739441,680.737549 579.735107,679.235596 
	C575.110535,677.847717 570.174927,677.763489 566.765686,681.428528 
	C563.393738,685.053650 566.511475,688.829773 568.764709,692.884277 
M560.664429,728.803101 
	C560.723328,725.640808 560.752625,722.477539 560.848999,719.316406 
	C560.956055,715.808350 559.816528,712.734192 557.513794,710.158325 
	C553.910095,706.127136 550.090759,706.702576 547.787598,711.519165 
	C544.785645,717.797180 550.956482,730.569397 558.695496,734.019348 
	C560.243530,732.966125 560.321472,731.251892 560.664429,728.803101 
M240.283569,658.513733 
	C242.237671,658.878357 244.181931,659.311890 246.147949,659.593262 
	C250.263153,660.182312 252.688141,658.313843 253.977081,654.408264 
	C255.311523,650.364807 254.475220,647.228455 250.803726,644.998535 
	C246.106277,642.145630 237.656219,642.489319 235.500168,645.571533 
	C233.415176,648.552185 235.194778,654.075256 240.283569,658.513733 
M307.120941,660.422729 
	C308.230682,656.874146 308.483215,653.467896 304.965088,651.042419 
	C300.489288,647.956848 295.627106,647.954224 290.671417,649.649658 
	C289.336517,650.106384 288.644470,651.242310 288.302521,652.637695 
	C287.324249,656.629944 289.969635,662.534119 293.505768,664.120972 
	C298.239899,666.245483 303.972717,664.954285 307.120941,660.422729 
M268.775604,646.047363 
	C261.325348,647.103760 259.504639,650.747864 262.864746,657.400024 
	C265.216187,662.055237 269.478973,661.707153 273.598175,662.021729 
	C278.258118,662.377686 279.960968,659.420715 281.163574,655.644287 
	C282.432037,651.661072 280.421844,649.319885 277.366974,647.429443 
	C274.988495,645.957520 272.299438,646.015503 268.775604,646.047363 
M673.956970,763.412048 
	C674.930054,759.344604 679.872864,756.666016 678.241150,751.732483 
	C676.231873,745.657471 671.323181,742.581360 665.731018,739.207642 
	C663.905701,747.076599 663.694092,753.963928 665.448730,760.822327 
	C666.660828,765.559814 668.777466,766.280701 673.956970,763.412048 
M266.499664,698.898682 
	C270.254791,695.390991 274.142975,691.964661 275.394775,686.656189 
	C276.356079,682.579651 273.337402,677.010681 269.606476,676.481812 
	C265.077576,675.839905 262.843506,678.912292 261.978027,682.674927 
	C260.569092,688.800110 260.501587,695.029114 261.764496,701.327332 
	C263.807678,701.334900 264.849030,700.234131 266.499664,698.898682 
M660.569031,749.394531 
	C660.384705,747.012573 661.300476,744.437805 658.966064,741.774597 
	C654.053406,749.039673 648.209473,755.338501 646.266663,764.068970 
	C645.303223,768.398315 647.945007,770.239014 651.124268,771.374573 
	C654.240784,772.487671 655.378845,769.628296 656.700867,767.582947 
	C660.123840,762.286865 659.614319,756.109924 660.569031,749.394531 
M636.090332,743.585510 
	C633.174072,745.950439 634.191467,749.303772 633.862488,752.333191 
	C633.383911,756.741760 635.327881,758.582642 639.107727,756.513428 
	C646.833313,752.284119 651.740417,745.402344 656.076477,737.390137 
	C648.154602,736.401001 641.883667,738.111084 636.090332,743.585510 
M242.935272,688.484436 
	C246.388412,692.924988 249.258743,697.964050 254.631424,700.963135 
	C256.206940,696.360413 256.243317,688.258545 254.963333,684.104309 
	C254.020828,681.045532 252.757965,678.158020 250.001205,676.270142 
	C247.126251,674.301270 244.976776,673.257385 242.582855,677.645813 
	C240.487930,681.486267 240.942657,684.452759 242.935272,688.484436 
M671.908569,726.569702 
	C672.879822,726.356812 673.844116,726.102539 674.823486,725.937866 
	C680.239136,725.027466 684.651062,722.508850 688.623535,718.622681 
	C691.917786,715.399963 688.946167,712.528076 689.152588,709.527405 
	C689.254395,708.046753 690.062500,706.458557 688.204102,705.644287 
	C686.171631,704.753845 684.183594,705.489624 682.584656,706.711609 
	C676.592712,711.291199 673.112427,717.699890 670.111450,724.412781 
	C669.628174,725.493835 669.895874,726.354187 671.908569,726.569702 
M665.197937,714.343323 
	C665.197937,716.743713 665.197937,719.144104 665.197937,721.544495 
	C671.129028,715.126770 675.488281,708.328613 678.103516,700.516785 
	C679.213684,697.200867 678.615540,695.204773 675.019958,693.493408 
	C671.288269,691.717285 670.120056,694.067261 668.622864,696.095581 
	C664.786987,701.292297 665.349854,707.438599 665.197937,714.343323 
M575.202209,740.986755 
	C576.690552,740.862000 578.220764,740.916870 579.659851,740.580994 
	C585.454834,739.228210 591.631958,738.448914 594.055786,731.606750 
	C594.645386,729.942383 596.225769,728.386597 594.621826,726.593689 
	C593.085510,724.876221 591.061584,724.050476 588.779602,724.755737 
	C580.417908,727.340027 575.662659,733.937134 570.421082,740.108765 
	C572.184021,741.750488 573.341919,741.211731 575.202209,740.986755 
M215.540787,655.878296 
	C216.680176,656.100159 217.810516,656.406433 218.960480,656.529480 
	C224.364532,657.107910 227.803284,654.205078 228.307236,648.696838 
	C228.755005,643.802612 222.813507,639.246216 215.624649,639.519165 
	C210.251312,639.723206 211.922516,644.271423 212.042633,647.154602 
	C212.165192,650.096191 210.196640,654.061890 215.540787,655.878296 
M271.541443,431.008850 
	C262.196594,427.158783 259.742493,419.375488 260.783844,409.306824 
	C253.966568,414.989044 252.976364,422.344238 257.100494,429.383240 
	C260.849152,435.781372 269.386505,438.546326 277.088135,435.791809 
	C276.474487,433.176636 274.112762,432.477966 271.541443,431.008850 
M823.716431,754.077271 
	C824.128418,752.132751 824.530701,750.186096 824.955505,748.244385 
	C825.290100,746.714783 824.510925,744.952209 826.320190,743.740601 
	C830.598328,740.875916 828.770142,737.217651 828.035400,732.626648 
	C820.136597,738.479614 822.629578,748.366089 817.238586,754.021057 
	C814.972961,753.915344 814.154053,751.472046 811.772522,751.797729 
	C810.643738,754.090637 808.168579,756.261902 810.192810,759.280640 
	C811.752014,761.605896 813.557556,764.509888 816.539001,764.409729 
	C819.984741,764.293762 820.832825,760.692932 822.177551,758.079468 
	C822.708130,757.048462 823.057129,755.924072 823.716431,754.077271 
M678.860413,676.438782 
	C683.646606,673.755249 683.792358,668.813782 684.367798,664.316833 
	C684.715759,661.597961 682.731750,660.082275 679.862610,660.402466 
	C675.048279,660.939697 671.500671,663.325256 669.391602,667.760071 
	C667.758545,671.194092 667.635986,674.796509 670.108154,677.596436 
	C672.716858,680.550903 675.568176,678.016418 678.860413,676.438782 
M637.898438,678.787598 
	C627.954346,681.942261 625.830200,685.235535 627.267151,695.218933 
	C627.481873,696.710815 627.417175,698.294373 629.654114,698.247253 
	C637.068481,698.091064 644.281250,687.097412 641.412109,680.276489 
	C640.888977,679.032776 639.899292,678.588745 637.898438,678.787598 
M677.407349,729.850098 
	C674.466614,730.751221 671.153259,730.797607 668.830750,733.395935 
	C670.500488,737.794006 674.419556,739.583801 677.740662,741.974304 
	C680.832703,744.200073 684.047668,744.202332 686.918701,741.753662 
	C689.754700,739.334839 689.612244,735.424377 689.162415,732.541504 
	C688.627014,729.110046 684.691223,729.283325 681.673828,729.304443 
	C680.516602,729.312500 679.360718,729.507446 677.407349,729.850098 
M655.466614,686.810974 
	C661.515808,684.634338 662.784302,679.681335 662.890320,674.045349 
	C662.944702,671.153992 661.428467,669.688721 658.651123,669.650635 
	C652.650146,669.568237 646.403381,677.158325 647.479980,683.117981 
	C648.293091,687.618835 650.187988,688.659302 655.466614,686.810974 
M312.846771,572.428162 
	C316.093933,567.869019 320.661316,564.234497 323.461456,558.245361 
	C316.597260,559.612793 311.318481,562.665222 305.410461,563.544067 
	C304.328949,563.704956 303.758118,564.759094 303.642883,565.740234 
	C302.989136,571.307373 303.007751,576.775635 306.229736,581.821411 
	C306.912628,581.374451 307.281494,581.259460 307.438934,581.010681 
	C309.120941,578.353027 310.769440,575.674133 312.846771,572.428162 
M232.977219,687.422424 
	C226.900040,687.351318 225.771851,688.714355 227.658234,693.900024 
	C228.291199,695.640015 229.124115,697.307922 230.631470,698.446350 
	C236.032150,702.524963 242.112656,704.705505 249.142548,705.270569 
	C246.023788,698.985535 237.739929,689.614807 232.977219,687.422424 
M691.627075,656.246094 
	C690.986511,657.404114 690.075073,658.492554 689.756531,659.733276 
	C688.839905,663.303528 688.875244,667.335144 692.296387,669.104736 
	C696.003479,671.022217 699.338684,668.052002 701.962463,665.603027 
	C704.082825,663.623962 704.293823,652.708618 702.480225,651.822815 
	C697.833496,649.553040 695.167969,653.276428 691.627075,656.246094 
M654.587280,719.863831 
	C656.141479,721.229004 657.279785,723.282288 660.481567,723.068726 
	C660.941162,716.530884 661.732544,710.022461 659.761658,703.557922 
	C658.897705,700.724060 656.612488,698.922058 653.850464,699.084290 
	C651.377991,699.229614 650.918579,702.061157 650.513916,704.076721 
	C649.395508,709.646790 649.683594,715.007385 654.587280,719.863831 
M652.900208,724.544556 
	C651.630859,723.014893 650.399231,721.451904 649.083496,719.963196 
	C647.016968,717.625061 644.262024,717.812256 641.698425,718.491394 
	C638.059082,719.455505 638.962280,722.961853 638.347351,725.542786 
	C637.764099,727.991211 638.270020,730.111572 640.624878,731.557007 
	C644.399353,733.873840 652.747437,732.875610 656.251099,729.610168 
	C655.910278,727.704041 654.544006,726.446594 652.900208,724.544556 
M544.744690,247.402863 
	C544.605347,242.824448 542.687073,239.665939 537.767639,239.378052 
	C533.886902,239.150955 530.678406,242.524689 530.148499,247.102615 
	C529.680664,251.144852 530.730774,254.428467 535.083313,255.657364 
	C539.261536,256.837067 542.540649,254.683304 544.443359,249.651337 
	C544.616028,249.194839 544.620117,248.674606 544.744690,247.402863 
M801.833374,587.526489 
	C799.513000,591.297668 799.362183,595.408020 800.147949,599.580261 
	C800.884033,603.488708 803.498413,604.865784 807.087219,603.176392 
	C811.308594,601.189453 813.598450,597.894470 814.128967,593.068726 
	C814.549500,589.242737 815.011047,585.004761 811.622742,583.064819 
	C807.895020,580.930603 804.943481,584.424866 801.833374,587.526489 
M325.889343,651.402649 
	C324.892029,651.375488 323.894470,651.318054 322.897491,651.326721 
	C319.682709,651.354736 316.212585,651.329041 314.824951,654.908081 
	C313.366058,658.670776 314.961578,662.219788 317.225739,665.141357 
	C320.116699,668.871765 324.331268,668.064331 325.978851,663.646973 
	C326.963470,661.007080 327.709717,658.271851 328.443817,655.547363 
	C328.909729,653.818115 328.786987,652.194458 325.889343,651.402649 
M333.862274,487.743500 
	C332.394989,486.550140 331.390686,484.541565 328.995941,484.899872 
	C329.045990,491.113525 332.826202,495.276062 340.161133,497.447052 
	C350.083740,500.383972 359.104004,496.755890 368.226715,493.834015 
	C367.386566,493.581604 366.605896,493.789795 365.816162,493.833282 
	C354.901062,494.434021 343.800110,496.046295 333.862274,487.743500 
M825.127136,596.730774 
	C830.092590,596.030457 832.203369,593.137512 831.892761,588.190369 
	C831.748230,585.889832 831.986938,583.567810 831.950134,581.257141 
	C831.921326,579.448303 832.001343,577.426392 829.997253,576.530029 
	C827.971252,575.623901 826.088440,576.496826 824.438660,577.683533 
	C819.535339,581.210510 818.922241,586.283020 819.232910,591.817444 
	C819.426147,595.258728 820.647644,597.160095 825.127136,596.730774 
M802.044922,681.603088 
	C802.263245,682.748291 802.974609,684.669983 803.866760,683.887451 
	C806.754089,681.354614 808.957947,684.087341 811.318909,684.528748 
	C814.200256,678.523682 811.015564,668.132812 805.128113,664.301270 
	C803.322327,669.725159 802.101440,675.160767 802.044922,681.603088 
M818.895569,642.387024 
	C825.580933,635.929932 826.033508,633.002380 820.942871,626.647522 
	C813.292053,631.362549 814.152344,640.236938 809.798584,647.447571 
	C814.265137,647.116577 815.922424,644.302246 818.895569,642.387024 
M811.337341,664.117920 
	C812.457031,665.555481 813.511719,667.050171 814.711914,668.417114 
	C816.463135,670.411682 818.474976,673.065552 821.283081,670.773804 
	C823.924438,668.618225 825.337219,665.616943 822.859253,662.038757 
	C820.039429,657.967102 815.744507,656.965210 809.746460,659.371765 
	C809.336243,660.978333 810.390625,662.178528 811.337341,664.117920 
M507.474426,761.806213 
	C506.808289,759.424316 506.248962,756.942200 503.059784,756.767578 
	C501.526917,758.963074 503.453827,762.567627 500.375763,763.464233 
	C497.174622,764.396667 497.289948,760.081299 494.806183,759.083069 
	C492.253601,761.828186 492.757996,764.779114 494.150299,767.758179 
	C495.234802,770.078674 497.238403,771.449707 499.710876,771.342102 
	C502.917755,771.202454 505.393921,769.525085 506.566284,766.388733 
	C507.026337,765.158020 507.222992,763.828857 507.474426,761.806213 
M813.292908,652.363770 
	C813.229919,652.831421 812.942139,653.560913 813.136963,653.728271 
	C817.420349,657.406128 825.567444,655.987976 828.191833,651.165161 
	C829.080811,649.531555 830.041565,647.938843 828.308289,646.217407 
	C826.558411,644.479309 824.626404,643.917114 822.513855,645.396912 
	C819.530396,647.486755 816.632629,649.698792 813.292908,652.363770 
M319.307831,243.619797 
	C320.533508,240.124786 319.789825,237.413910 316.139893,235.970901 
	C312.648895,234.590714 309.989136,236.161118 307.897491,238.744644 
	C306.236908,240.795792 306.299561,243.173920 308.269745,245.009323 
	C311.066528,247.614685 314.239746,247.435181 317.393677,245.566284 
	C317.948700,245.237350 318.379333,244.698410 319.307831,243.619797 
M599.275024,771.687988 
	C596.398743,773.721985 595.981567,776.467896 597.047180,779.594482 
	C598.133484,782.781860 600.312073,784.951416 603.748352,784.194763 
	C607.093201,783.458374 607.725037,780.326294 607.504578,777.401489 
	C607.165344,772.901672 604.435974,771.001465 599.275024,771.687988 
M223.538742,676.868286 
	C223.164169,675.036072 222.444046,673.363831 221.058441,672.074585 
	C219.622131,670.738220 218.127975,668.788025 215.952423,670.007263 
	C212.798660,671.774597 212.268356,675.150269 212.589661,678.301514 
	C212.949982,681.835510 216.197266,682.365051 218.984116,682.703613 
	C222.646896,683.148621 223.329025,680.472717 223.538742,676.868286 
M524.864624,768.812805 
	C520.176636,765.158691 516.658081,765.246216 515.030762,769.049316 
	C513.831665,771.851685 514.521179,774.344177 516.642517,776.279602 
	C518.669373,778.128784 521.353516,778.318909 523.608948,777.017578 
	C526.631042,775.273926 526.007690,772.274109 524.864624,768.812805 
M599.450012,714.970276 
	C597.945862,718.225403 597.959290,721.374084 601.391174,723.182129 
	C603.586365,724.338379 606.890869,724.695740 608.020203,721.980591 
	C609.321289,718.852600 610.003296,714.769470 606.992554,712.203674 
	C604.250305,709.866516 601.762207,712.047852 599.450012,714.970276 
M519.583923,705.411377 
	C517.308655,708.981018 516.967224,712.321716 521.214417,714.609985 
	C523.650574,715.922546 526.274048,716.614990 528.035706,713.331055 
	C529.745972,710.142822 528.470947,706.175842 525.178650,704.401123 
	C523.328186,703.403625 521.691956,703.628967 519.583923,705.411377 
M213.879837,738.649414 
	C213.939774,741.663879 214.124527,744.850342 218.461777,743.388855 
	C222.481308,742.034363 223.158417,738.539734 222.594116,734.831909 
	C222.065170,731.356445 219.385941,730.974487 216.551163,731.275635 
	C211.717758,731.789062 214.233566,735.420410 213.879837,738.649414 
M799.672974,623.297607 
	C797.701843,622.638489 796.475769,623.109009 796.285278,625.397034 
	C795.776489,631.509766 797.552917,636.874939 801.343994,642.219727 
	C803.455383,638.072998 802.574646,634.223511 802.748901,630.524658 
	C802.869690,627.962463 803.333252,625.107483 799.672974,623.297607 
M807.468567,625.404541 
	C807.124634,630.486084 805.489807,635.581604 807.146484,641.232056 
	C813.089844,633.965271 814.885925,623.578125 811.158508,620.062622 
	C809.146240,620.940430 808.485657,622.839111 807.468567,625.404541 
M696.022217,755.599060 
	C699.924927,755.139160 701.397522,752.149109 700.596436,746.797119 
	C700.171631,743.959534 698.662903,743.189636 696.072571,743.773804 
	C691.345764,744.839783 690.973389,750.466675 696.022217,755.599060 
M695.363159,696.286804 
	C701.820557,693.028015 702.842407,687.390198 697.918213,682.190430 
	C692.080811,687.317200 690.982422,692.109924 695.363159,696.286804 
M290.926392,678.379822 
	C288.588654,679.425415 288.185944,681.026611 289.540039,683.151367 
	C290.755096,685.057983 292.167145,686.742859 294.729248,685.873718 
	C296.736328,685.192871 299.064331,684.508362 299.440033,682.018311 
	C299.787537,679.714478 297.794006,678.471985 296.226990,677.404602 
	C294.683289,676.353149 293.089386,677.643311 290.926392,678.379822 
M316.118744,681.191589 
	C311.874268,678.462891 308.998352,678.793945 308.280121,682.142700 
	C307.876129,684.026123 308.179810,685.858704 309.916473,686.968689 
	C311.838165,688.196899 314.023834,688.510803 315.914398,687.028564 
	C317.722778,685.610718 317.830841,683.695557 316.118744,681.191589 
M294.930603,741.425781 
	C292.630188,747.258118 293.253662,749.027832 298.327820,750.966858 
	C299.943024,749.544312 300.143158,747.475464 300.547241,745.579041 
	C301.610046,740.590698 300.868256,739.965454 294.930603,741.425781 
M635.629211,774.086731 
	C635.634216,772.653992 635.182068,772.005188 633.536072,772.392822 
	C628.996094,773.461853 627.807129,777.787903 630.346863,785.447021 
	C634.054321,782.656677 634.442993,778.505127 635.629211,774.086731 
M287.221344,254.001236 
	C284.879822,251.636078 282.437714,251.825821 280.216644,254.021606 
	C278.746552,255.474976 278.780609,257.373199 279.939758,259.060486 
	C281.144775,260.814423 283.058075,261.144684 284.854248,260.459900 
	C287.500732,259.450897 288.912842,257.569275 287.221344,254.001236 
M515.210938,738.532654 
	C515.682983,738.389465 516.175720,738.293091 516.623718,738.095459 
	C519.452759,736.847473 519.825989,734.963196 517.903442,732.635376 
	C516.188110,730.558533 513.997742,729.009033 511.571106,731.139038 
	C509.500427,732.956665 509.926849,735.350159 511.927155,737.202271 
	C512.614868,737.838989 513.649536,738.101135 515.210938,738.532654 
M388.222778,179.527237 
	C390.063293,179.049240 391.484009,177.975098 392.372070,176.319168 
	C393.077606,175.003632 393.705048,173.551910 392.124969,172.368515 
	C390.705658,171.305542 389.266632,171.968246 387.962982,172.620667 
	C386.149719,173.528046 384.592041,174.842239 384.542053,177.046661 
	C384.499847,178.906174 385.918274,179.456619 388.222778,179.527237 
M828.398743,684.559204 
	C828.494995,683.751709 828.666260,682.944641 828.671082,682.136597 
	C828.679932,680.666565 828.776733,678.980347 826.911865,678.554871 
	C824.977844,678.113525 824.430908,679.706970 823.942017,681.105835 
	C823.175354,683.299561 823.445068,685.488159 825.305420,686.867554 
	C826.803345,687.978149 827.545837,686.416382 828.398743,684.559204 
M501.492554,740.010620 
	C499.089294,738.874329 497.195343,739.640137 495.372406,741.515320 
	C496.533630,743.807068 497.953064,745.821716 500.556976,745.120239 
	C502.750061,744.529297 503.429871,742.622742 501.492554,740.010620 
M826.364197,613.457642 
	C825.420776,615.569763 824.148010,617.700684 826.028015,619.910767 
	C826.613892,620.599487 827.547424,620.547913 828.300110,620.036194 
	C830.752136,618.369019 829.855286,615.921509 829.660217,613.684937 
	C829.593933,612.925171 829.152466,612.198181 828.921814,611.564270 
	C827.631226,611.515808 827.217041,612.281616 826.364197,613.457642 
M632.515930,839.334839 
	C627.989746,841.262634 630.601074,844.315125 630.841797,847.824463 
	C633.888794,845.096375 636.407837,843.109802 632.515930,839.334839 
M504.321869,699.334656 
	C501.331757,699.938171 500.943420,701.781189 502.338531,704.072754 
	C503.137970,705.385864 504.641327,705.555725 505.787842,704.440308 
	C507.800598,702.482117 507.727997,700.687805 504.321869,699.334656 
M815.535522,739.239685 
	C814.364563,739.832581 813.010193,740.367065 813.925049,742.083130 
	C814.312744,742.810425 815.056519,743.430359 815.903503,743.121948 
	C817.421692,742.568970 818.177368,741.117249 818.220215,739.713623 
	C818.266724,738.191650 816.990051,738.739197 815.535522,739.239685 
M632.419983,717.472961 
	C632.963440,715.900452 633.604370,714.178406 631.268494,713.619080 
	C630.220581,713.368164 629.457092,714.373596 629.342773,715.393250 
	C629.135620,717.241699 629.450806,718.776062 632.419983,717.472961 
z"/>
<path fill="#000000" opacity="1.000000" stroke="none" 
	d="
M607.906738,248.628159 
	C614.216064,249.860992 616.364624,252.544998 616.326477,258.624390 
	C616.291321,264.222931 613.017761,268.248383 607.746277,269.175140 
	C603.123962,269.987823 598.269958,267.338593 596.417236,262.992004 
	C594.576172,258.672913 596.471191,253.395096 600.910645,250.506241 
	C602.906250,249.207718 605.074768,248.489944 607.906738,248.628159 
z"/>
<path fill="#000000" opacity="1.000000" stroke="none" 
	d="
M184.534805,441.965698 
	C187.770081,436.540558 191.602921,434.513397 196.106995,435.829590 
	C200.104935,436.997864 202.019058,440.010254 202.223618,444.016327 
	C202.450668,448.462524 199.184357,452.457733 194.495972,453.830078 
	C187.931702,455.751495 182.945038,450.078522 184.534805,441.965698 
z"/>
<path fill="#000000" opacity="1.000000" stroke="none" 
	d="
M488.167877,175.538818 
	C490.621796,177.245605 491.700897,179.129608 490.442566,181.693466 
	C489.305328,184.010590 487.269531,185.206055 484.795868,185.003464 
	C481.631348,184.744278 479.123627,183.074387 479.853180,179.560440 
	C480.723297,175.369659 483.792175,174.179642 488.167877,175.538818 
z"/>
<path fill="#000000" opacity="1.000000" stroke="none" 
	d="
M507.806030,363.570862 
	C508.545074,366.783630 507.488831,368.886261 504.871643,369.973724 
	C502.819641,370.826355 500.991180,370.074768 499.535248,368.428101 
	C497.676666,366.326050 497.436462,363.987091 498.636017,361.520020 
	C500.560089,357.562836 504.204010,358.249237 507.806030,363.570862 
z"/>
<path fill="#000000" opacity="1.000000" stroke="none" 
	d="
M793.628357,722.960205 
	C794.746277,720.687439 795.837158,718.186646 798.357788,719.267761 
	C801.094177,720.441406 801.531860,723.308350 800.753113,726.050049 
	C800.088501,728.389648 799.254456,731.696838 796.401306,731.179443 
	C792.018860,730.384705 792.452148,726.730408 793.628357,722.960205 
z"/>
<path fill="#000000" opacity="1.000000" stroke="none" 
	d="
M218.862366,307.516937 
	C216.040497,305.343689 215.571823,302.972137 217.252914,300.288055 
	C218.341766,298.549561 219.990417,297.884186 221.993210,298.463745 
	C224.373016,299.152374 225.736099,300.930756 225.617416,303.273132 
	C225.414322,307.281891 223.175171,308.902130 218.862366,307.516937 
z"/>
<path fill="#000000" opacity="1.000000" stroke="none" 
	d="
M815.139160,719.524963 
	C814.142273,722.236755 813.270142,725.120728 810.052856,724.078796 
	C806.742249,723.006714 807.462524,719.788086 807.895386,717.286804 
	C808.317993,714.845337 809.425537,711.918579 812.488525,712.562927 
	C815.778870,713.255188 815.388733,716.462891 815.139160,719.524963 
z"/>
<path fill="#000000" opacity="1.000000" stroke="none" 
	d="
M583.735596,308.734558 
	C580.092468,308.220947 578.090149,306.543518 579.145935,302.988586 
	C579.753052,300.944275 581.401611,299.704559 583.699768,299.846069 
	C585.542358,299.959473 586.859863,300.970032 587.311768,302.752045 
	C588.043274,305.636688 586.750244,307.546082 583.735596,308.734558 
z"/>
<path fill="#000000" opacity="1.000000" stroke="none" 
	d="
M215.720337,484.511353 
	C212.913712,486.176147 210.615875,486.039612 208.897736,483.556274 
	C207.839661,482.026886 208.068512,480.384064 209.328247,478.994659 
	C210.821472,477.347870 212.717026,476.778473 214.722153,477.754272 
	C217.877548,479.289856 217.906693,481.630890 215.720337,484.511353 
z"/>
<path fill="#000000" opacity="1.000000" stroke="none" 
	d="
M366.329315,235.619934 
	C364.222198,233.078186 364.711761,231.034073 366.935791,229.463669 
	C368.647217,228.255249 370.611633,227.863571 372.296844,229.614029 
	C373.717590,231.089783 373.910522,232.981766 372.859772,234.612289 
	C371.314392,237.010437 369.157379,237.789459 366.329315,235.619934 
z"/>
<path fill="#000000" opacity="1.000000" stroke="none" 
	d="
M570.435242,183.822784 
	C569.314331,186.734680 567.447937,187.740005 564.877930,186.679840 
	C563.193726,185.985031 562.533081,184.420502 562.905396,182.608917 
	C563.284241,180.765335 564.598755,179.777374 566.394287,179.713058 
	C568.888977,179.623703 570.442810,180.792297 570.435242,183.822784 
z"/>
<path fill="#000000" opacity="1.000000" stroke="none" 
	d="
M545.778076,296.116730 
	C543.075562,297.650787 541.299316,296.851807 540.238220,294.543213 
	C539.455750,292.840729 540.146545,291.276276 541.545654,290.160370 
	C543.037964,288.970123 544.731689,289.100250 546.060486,290.336761 
	C547.937927,292.083862 547.942871,294.051514 545.778076,296.116730 
z"/>
<path fill="#000000" opacity="1.000000" stroke="none" 
	d="
M487.855438,355.799316 
	C488.626831,355.385773 489.085999,355.057831 489.550415,355.050171 
	C492.101013,355.007996 494.345001,355.810028 494.685120,358.614410 
	C494.901306,360.397064 493.207855,361.361176 491.646545,361.094543 
	C488.994507,360.641663 486.184418,359.913025 487.855438,355.799316 
z"/>
<path fill="#000000" opacity="1.000000" stroke="none" 
	d="
M811.000305,778.631348 
	C811.429688,782.410889 808.803589,781.981934 806.757874,782.423706 
	C805.110779,780.378601 806.185730,778.845947 807.468384,777.613159 
	C808.710571,776.419128 809.836487,777.432983 811.000305,778.631348 
z"/>
<path fill="#000000" opacity="1.000000" stroke="none" 
	d="
M792.260742,601.291321 
	C787.890442,600.625916 790.181274,598.028503 790.101624,595.027283 
	C793.944336,596.524780 794.980164,598.091675 792.260742,601.291321 
z"/>
<path fill="#000000" opacity="1.000000" stroke="none" 
	d="
M473.354950,654.202148 
	C471.688507,658.435120 470.062592,662.269470 468.633636,666.175903 
	C466.861267,671.021118 466.794098,675.856873 468.597076,680.810791 
	C471.024353,687.479980 469.923615,690.336121 463.917084,694.168213 
	C462.237244,695.239868 460.482239,696.213745 458.690491,697.086182 
	C454.434448,699.158508 450.772095,698.510986 447.446106,694.928223 
	C442.222931,689.301697 435.792236,690.167908 432.151672,697.005737 
	C430.598785,699.922424 429.740631,703.200256 428.388489,706.234497 
	C425.184448,713.424316 421.495667,713.948364 416.541931,707.915466 
	C414.044922,708.425415 413.054962,712.362671 409.816010,711.165405 
	C406.820587,710.058105 408.741638,705.990417 405.804932,704.427368 
	C403.080963,705.064758 402.139191,708.636536 399.221130,709.123657 
	C395.433472,709.756042 395.636505,705.848206 393.835419,704.109924 
	C391.188934,704.252563 388.428375,707.082092 385.987091,704.106873 
	C383.664520,701.276306 384.738586,698.155884 385.626953,695.077148 
	C386.316589,692.687073 387.236176,690.251465 387.300629,687.816162 
	C387.433197,682.807007 381.789429,678.735474 376.291199,679.624390 
	C374.325806,679.942078 372.424530,680.643127 370.463684,681.005066 
	C365.696014,681.885315 361.643616,679.672974 359.494781,675.128113 
	C357.386230,670.668457 358.242035,667.142090 362.667786,663.866943 
	C368.928619,659.233826 371.375336,652.913208 370.374512,645.517883 
	C368.065094,628.453735 378.371582,608.618896 394.518921,601.813171 
	C412.661530,594.166382 431.388916,591.479492 450.322815,599.382996 
	C467.179016,606.419067 474.579498,620.387024 477.177460,637.452576 
	C478.050995,643.190613 475.621124,648.572266 473.354950,654.202148 
M427.140747,659.849426 
	C425.128815,667.741394 428.066223,673.736511 435.181335,676.260010 
	C444.566681,679.588745 455.660889,673.243042 457.499329,663.494568 
	C458.679749,657.235413 455.732941,652.244751 449.699677,650.285278 
	C441.392456,647.587280 432.574463,651.087036 427.140747,659.849426 
M381.521759,659.595703 
	C384.523804,666.329651 389.546875,669.911316 395.506104,669.567200 
	C402.997803,669.134583 408.536316,665.113159 410.769592,658.717041 
	C411.586853,656.376465 411.505890,654.209778 410.686920,651.934265 
	C408.261292,645.194275 400.474030,640.966187 392.888733,642.327332 
	C385.031891,643.737122 380.943146,649.596985 381.521759,659.595703 
M413.603882,674.532227 
	C410.855011,677.284363 409.151031,680.712585 407.423920,684.121338 
	C406.286560,686.366150 407.011780,687.920776 409.251465,688.923767 
	C411.478790,689.921204 413.788177,690.247803 415.998047,689.176392 
	C418.557281,687.935669 418.130798,685.225952 417.495911,683.439453 
	C416.405640,680.371460 418.863678,675.938293 413.603882,674.532227 
z"/>
<path fill="#000000" opacity="1.000000" stroke="none" 
	d="
M365.693298,706.205811 
	C383.249084,720.587585 402.118011,729.499573 425.241119,724.315308 
	C429.617188,723.334167 434.060272,722.628235 438.398102,721.507629 
	C441.951477,720.589539 445.153320,719.010315 447.831329,716.212219 
	C451.113770,712.782532 454.570312,712.966675 457.821045,716.332581 
	C461.014252,719.638916 463.119904,723.627258 464.049774,728.104919 
	C464.895569,732.177856 463.700012,735.772583 460.209808,738.215759 
	C456.718018,740.660095 453.385345,740.084595 450.210541,737.298340 
	C449.126190,736.346741 447.696167,735.539246 446.299805,735.233521 
	C437.279572,733.258179 428.648865,735.513489 419.771454,737.995483 
	C427.124023,743.850403 433.222565,751.442261 443.615753,751.731995 
	C450.090698,751.912476 454.453308,755.923096 454.934906,762.089294 
	C455.352966,767.442078 449.109375,774.294983 443.074890,775.106506 
	C438.103638,775.775146 433.290863,772.181458 432.221375,766.285950 
	C431.538147,762.519531 429.853516,759.804749 426.770538,757.800659 
	C418.538147,752.449036 410.309448,747.091370 402.041931,741.794373 
	C400.044128,740.514404 397.804535,739.917297 395.375031,740.137573 
	C383.119507,741.248962 370.775238,741.255127 358.586395,743.255920 
	C354.308777,743.958130 350.755859,745.440369 347.883148,748.909546 
	C343.879120,753.744934 339.325043,754.853027 335.790863,752.408325 
	C331.578094,749.494446 329.685028,738.880249 332.506989,733.996094 
	C334.954102,729.760742 339.547729,728.346863 344.655823,730.787048 
	C348.170135,732.465881 351.513489,732.833984 355.264008,731.920715 
	C360.263519,730.703308 365.369720,729.929504 370.387268,728.778687 
	C373.298737,728.110901 374.292633,726.035828 371.526672,724.365723 
	C363.932404,719.780396 357.642731,712.299561 346.917542,714.668396 
	C340.885101,716.000793 336.596985,708.994019 339.368469,703.068542 
	C341.632080,698.228943 345.476837,694.716370 350.532379,692.887573 
	C356.240234,690.822937 360.659851,693.257751 362.467926,699.152039 
	C363.197998,701.532166 363.639435,704.032410 365.693298,706.205811 
z"/>
<path fill="#000000" opacity="1.000000" stroke="none" 
	d="
M546.052429,803.392944 
	C546.515137,804.327820 546.877625,804.911804 547.007324,805.543579 
	C547.656494,808.704285 547.280579,811.673584 543.998413,813.077820 
	C540.890930,814.407288 538.549316,812.823486 537.024170,810.090210 
	C535.251099,806.912659 535.799683,803.902893 538.587158,801.686218 
	C541.311890,799.519409 543.819763,800.506409 546.052429,803.392944 
z"/>
<path fill="#000000" opacity="1.000000" stroke="none" 
	d="
M496.680603,795.109680 
	C497.502045,795.428589 498.008179,795.574890 498.377441,795.884460 
	C501.260590,798.301758 502.131927,801.355347 500.496429,804.728943 
	C499.420807,806.947632 497.275970,808.356445 494.769562,807.593445 
	C491.586945,806.624573 489.888092,803.999756 490.161163,800.747009 
	C490.453522,797.264160 492.385590,794.920471 496.680603,795.109680 
z"/>
<path fill="#000000" opacity="1.000000" stroke="none" 
	d="
M588.960022,806.900513 
	C589.686890,806.955383 590.029968,806.968140 590.332397,807.085632 
	C593.917236,808.478149 595.585083,811.160156 594.831970,814.882935 
	C594.254150,817.739136 592.325195,819.534912 589.145386,819.312927 
	C586.040100,819.096191 584.337463,817.135071 583.831116,814.293518 
	C583.157898,810.515198 584.531799,807.800598 588.960022,806.900513 
z"/>
<path fill="#000000" opacity="1.000000" stroke="none" 
	d="
M512.750488,804.020142 
	C513.277161,800.519897 514.939636,798.442017 518.130493,797.965881 
	C520.336182,797.636780 521.997559,798.705139 523.024170,800.620361 
	C524.262817,802.931213 524.652649,805.328125 523.059692,807.658325 
	C521.862915,809.408997 520.205078,810.533569 518.022522,810.162537 
	C514.863037,809.625549 513.201111,807.539124 512.750488,804.020142 
z"/>
<path fill="#000000" opacity="1.000000" stroke="none" 
	d="
M564.362976,804.783081 
	C567.776489,805.002441 569.459412,806.919495 570.067749,809.744690 
	C570.690125,812.635376 569.750427,815.028809 567.004089,816.427612 
	C564.642700,817.630371 562.751953,816.424255 561.243103,814.808838 
	C559.306213,812.735168 559.219666,810.262756 560.851257,807.966797 
	C561.693848,806.781006 562.958008,805.894775 564.362976,804.783081 
z"/>
<path fill="#000000" opacity="1.000000" stroke="none" 
	d="
M299.719238,779.202698 
	C299.096313,775.544861 299.759491,772.767822 303.453094,771.988159 
	C306.296600,771.388000 308.173035,772.998962 309.156281,775.582397 
	C310.244324,778.441101 310.318268,781.406921 307.271057,782.914185 
	C303.814819,784.623657 301.270111,782.973389 299.719238,779.202698 
z"/>
<path fill="#000000" opacity="1.000000" stroke="none" 
	d="
M286.596802,780.680664 
	C285.914642,780.842651 285.566650,780.945007 285.260712,780.871765 
	C281.759216,780.032898 279.789948,777.826965 279.776031,774.202209 
	C279.766083,771.618042 281.108215,769.624756 283.657410,769.082642 
	C286.349091,768.510193 287.966705,770.366333 289.106445,772.513550 
	C290.855621,775.808777 290.320526,778.576599 286.596802,780.680664 
z"/>
<path fill="#000000" opacity="1.000000" stroke="none" 
	d="
M269.645416,770.682190 
	C270.782166,774.474121 269.802643,777.200989 266.243530,777.952576 
	C263.297516,778.574707 261.186066,776.632568 260.151062,773.937134 
	C259.144958,771.316895 259.881165,768.798035 262.270721,767.434082 
	C265.586517,765.541443 267.900177,767.266235 269.645416,770.682190 
z"/>
<path fill="#000000" opacity="1.000000" stroke="none" 
	d="
M221.889160,763.161255 
	C225.228928,760.019287 227.868103,760.961365 229.952393,764.088501 
	C231.308136,766.122559 231.705994,768.395447 230.035339,770.573486 
	C228.795029,772.190430 227.135941,772.821716 225.202301,772.244629 
	C222.768372,771.518188 221.356873,769.727661 220.843704,767.285217 
	C220.560669,765.937988 220.949707,764.656738 221.889160,763.161255 
z"/>
<path fill="#000000" opacity="1.000000" stroke="none" 
	d="
M244.428665,775.018433 
	C243.500214,774.531616 242.876251,774.234741 242.419937,773.772400 
	C239.980728,771.301270 239.741730,768.498352 241.556259,765.625427 
	C242.796799,763.661194 244.813843,763.259949 246.824280,764.153992 
	C249.602203,765.389221 250.555984,767.844971 250.238892,770.731812 
	C249.891190,773.897400 248.060059,775.441711 244.428665,775.018433 
z"/>
<path fill="#000000" opacity="1.000000" stroke="none" 
	d="
M580.728943,873.230347 
	C581.744080,874.342468 582.686951,875.131104 582.198730,876.744385 
	C579.125122,877.221313 576.215759,876.601318 573.027100,875.085022 
	C575.121277,871.855713 577.032959,869.717529 580.728943,873.230347 
z"/>
<path fill="#000000" opacity="1.000000" stroke="none" 
	d="
M546.072937,871.281189 
	C542.878967,872.981506 540.247253,871.710815 537.568481,870.428345 
	C537.549438,867.917236 539.049622,866.674744 540.889038,866.569946 
	C543.735657,866.407654 545.314575,868.393616 546.072937,871.281189 
z"/>
<path fill="#000000" opacity="1.000000" stroke="none" 
	d="
M510.046570,866.523499 
	C506.835510,866.495605 503.961273,866.082520 501.400909,864.443542 
	C501.854828,861.834351 503.558289,860.412903 505.564148,860.866821 
	C508.134979,861.448425 510.194031,863.245056 510.046570,866.523499 
z"/>
<path fill="#000000" opacity="1.000000" stroke="none" 
	d="
M280.564331,832.822021 
	C278.361481,831.613220 279.181946,830.542908 280.274200,829.578125 
	C281.473938,828.518433 282.893646,827.935669 284.346405,828.975342 
	C285.790253,830.008728 287.400604,831.015137 287.576172,833.421814 
	C285.269043,834.170349 283.104401,833.106628 280.564331,832.822021 
z"/>
<path fill="#000000" opacity="1.000000" stroke="none" 
	d="
M248.228668,828.227295 
	C246.485565,827.651917 244.682678,827.278381 246.226685,825.236023 
	C247.271164,823.854492 248.712036,822.950684 250.472412,823.998169 
	C252.023895,824.921448 253.234634,826.206909 253.660522,828.058228 
	C251.901840,830.015991 250.214859,828.195374 248.228668,828.227295 
z"/>
<path fill="#000000" opacity="1.000000" stroke="none" 
	d="
M317.639771,833.570679 
	C319.335052,834.645386 320.600952,835.669434 320.326538,837.743835 
	C317.593506,838.995728 315.360016,837.407104 312.863770,836.719788 
	C313.465576,834.036194 315.161560,833.418945 317.639771,833.570679 
z"/>
<path fill="#000000" opacity="1.000000" stroke="none" 
	d="
M353.536896,841.274780 
	C351.115417,844.504395 349.097717,841.202454 346.778809,841.248413 
	C348.951294,837.171082 351.171967,837.674988 353.536896,841.274780 
z"/>
<path fill="#000000" opacity="1.000000" stroke="none" 
	d="
M649.799194,800.920959 
	C650.579102,803.976440 650.372559,806.584534 648.949158,808.998596 
	C648.145020,810.362427 646.992004,811.293701 645.274353,811.054443 
	C643.817200,810.851440 642.850159,809.916748 642.357300,808.609985 
	C641.011414,805.041260 642.294128,801.990723 644.763000,799.527100 
	C646.574646,797.719238 648.396118,798.377625 649.799194,800.920959 
z"/>
<path fill="#000000" opacity="1.000000" stroke="none" 
	d="
M686.381592,785.589355 
	C686.424561,784.228210 686.360901,783.187622 686.651184,782.257507 
	C687.388550,779.895142 688.003235,776.883240 691.238098,777.342834 
	C693.920410,777.723999 694.672180,780.202759 694.458008,782.780945 
	C694.194885,785.946777 693.340210,788.934448 689.743713,789.537048 
	C687.437500,789.923401 686.822937,787.834229 686.381592,785.589355 
z"/>
<path fill="#000000" opacity="1.000000" stroke="none" 
	d="
M657.385864,795.032471 
	C658.637817,792.618286 660.114197,790.711975 662.587708,792.153870 
	C664.997070,793.558533 665.385864,796.189209 664.632202,798.773865 
	C663.932312,801.174072 663.071167,803.777222 660.056274,803.992432 
	C658.165405,804.127502 657.118591,802.583496 656.822449,800.800049 
	C656.521912,798.989685 656.554016,797.155945 657.385864,795.032471 
z"/>
<path fill="#000000" opacity="1.000000" stroke="none" 
	d="
M678.479248,785.898193 
	C680.415283,789.492188 679.855286,792.572937 677.571777,795.356201 
	C676.463196,796.707336 674.919189,797.665527 673.273926,796.346680 
	C670.375000,794.023071 671.229370,790.926025 672.336670,788.196777 
	C673.337219,785.730530 674.881653,783.238037 678.479248,785.898193 
z"/>
<path fill="#000000" opacity="1.000000" stroke="none" 
	d="
M659.299927,863.522766 
	C656.984497,864.732910 655.035461,865.967407 652.401550,866.160034 
	C651.383667,862.911926 653.419800,860.930176 655.360229,859.136108 
	C656.694336,857.902588 658.122681,859.013306 659.343933,859.860657 
	C660.842712,860.900635 661.322083,862.039612 659.299927,863.522766 
z"/>
<path fill="#000000" opacity="1.000000" stroke="none" 
	d="
M676.959839,852.314941 
	C677.138916,849.721802 678.360107,847.902222 679.795837,846.296265 
	C681.573792,844.307373 683.204773,845.845642 684.514587,847.013367 
	C686.114197,848.439453 685.266052,849.848022 683.708496,850.541870 
	C681.585571,851.487549 679.886658,853.960022 676.959839,852.314941 
z"/>
<path fill="#000000" opacity="1.000000" stroke="none" 
	d="
M574.405029,765.557739 
	C577.170349,769.815430 577.194580,769.928223 576.396790,774.076965 
	C572.520935,773.443970 571.744507,770.337036 571.268921,767.346619 
	C571.008606,765.709656 572.103027,764.529358 574.405029,765.557739 
z"/>
<path fill="#000000" opacity="1.000000" stroke="none" 
	d="
M804.718994,590.140930 
	C806.142944,588.473694 807.595154,587.532166 809.167480,588.961853 
	C810.874329,590.513977 810.482361,592.541565 809.596069,594.407776 
	C808.802856,596.078186 807.428955,598.238525 805.713745,597.547791 
	C802.159424,596.116516 803.693604,593.075378 804.718994,590.140930 
z"/>
<path fill="#000000" opacity="1.000000" stroke="none" 
	d="
M830.133545,583.954590 
	C829.763367,585.265930 829.482544,586.236755 828.987366,587.081848 
	C828.061096,588.662354 827.088989,590.392334 824.845459,590.033997 
	C823.282410,589.784363 822.762878,588.513000 822.751892,587.068298 
	C822.732422,584.522156 823.856140,582.463684 826.070618,581.344666 
	C828.178345,580.279480 829.529236,581.425354 830.133545,583.954590 
z"/>
</svg>